<svg width="268" height="60" viewBox="0 0 268 60" fill="none" xmlns="http://www.w3.org/2000/svg">
<g clip-path="url(#clip0_520_6)">
<mask id="mask0_520_6" style="mask-type:luminance" maskUnits="userSpaceOnUse" x="0" y="0" width="58" height="60">
<path d="M58 0H0V60H58V0Z" fill="white"/>
</mask>
<g mask="url(#mask0_520_6)">
<path d="M29 19.0488C23.2993 19.0488 18.9872 21.4584 18.5356 21.7198L18.4453 21.7653C18.4453 22.0153 18.4566 22.6745 18.5469 23.6292C18.9081 27.63 20.6353 37.3023 28.9661 40.837L29 40.8484C29.8466 40.4961 30.6481 40.0642 31.3819 39.5641C39.4531 34.2108 39.5434 22.2994 39.5434 21.7653C39.4305 21.6971 38.8661 21.3788 37.9404 20.9696C35.9537 20.0945 32.7816 19.0488 29 19.0488ZM29.9257 29.7213V31.4603C29.9257 31.9717 29.5193 32.3809 29.0113 32.3809C28.5033 32.3809 28.0969 31.9717 28.0969 31.4603V29.7213C27.2729 29.3576 26.6972 28.5393 26.6972 27.5845C26.6972 26.3002 27.7357 25.2545 29.0113 25.2545C30.2869 25.2545 31.3254 26.3002 31.3254 27.5845C31.3141 28.5393 30.7384 29.369 29.9257 29.7213Z" fill="#025FCA"/>
<path opacity="0.2" d="M29 19.0488C23.2993 19.0488 18.9872 21.4584 18.5356 21.7198L18.4453 21.7653C18.4453 22.0153 18.4566 22.6745 18.5469 23.6292C18.9081 27.63 20.6353 37.3023 28.9661 40.837L29 40.8484C29.8466 40.4961 30.6481 40.0642 31.3819 39.5641C39.4531 34.2108 39.5434 22.2994 39.5434 21.7653C39.4305 21.6971 38.8661 21.3788 37.9404 20.9696C35.9537 20.0945 32.7816 19.0488 29 19.0488ZM29.9257 29.7213V31.4603C29.9257 31.9717 29.5193 32.3809 29.0113 32.3809C28.5033 32.3809 28.0969 31.9717 28.0969 31.4603V29.7213C27.2729 29.3576 26.6972 28.5393 26.6972 27.5845C26.6972 26.3002 27.7357 25.2545 29.0113 25.2545C30.2869 25.2545 31.3254 26.3002 31.3254 27.5845C31.3141 28.5393 30.7384 29.369 29.9257 29.7213Z" fill="#025FCA"/>
<path d="M34.0798 0.23868C33.267 0.15912 32.443 0.10229 31.6076 0.0681901C30.7497 0.0227301 29.8805 0 29 0C12.993 0 1.09498 7.0354 0.586999 7.3309L4.72904e-07 7.6833V8.3766C4.72904e-07 8.7744 -0.0112879 18.2989 3.45426 29.4374C3.70261 30.2557 3.97353 31.0627 4.25574 31.8583C4.57182 32.7448 4.89918 33.62 5.23784 34.4838C5.77968 33.8246 6.37797 33.1313 7.02141 32.4152C6.69405 31.5628 6.38926 30.699 6.10705 29.8011C5.99416 29.4601 5.88128 29.1192 5.76839 28.7668C2.94628 19.6742 2.49475 11.4794 2.42701 9.0813C5.01207 7.6833 15.6571 2.42091 29 2.42091C30.016 2.42091 31.0093 2.44364 31.9801 2.51184C32.8155 2.5573 33.6396 2.6255 34.441 2.70506C34.3056 1.67077 34.1701 0.8297 34.0798 0.23868ZM58 8.3766V7.6833L57.413 7.3309C57.0292 7.1036 49.9626 2.92101 39.487 0.97746C38.6742 0.8297 37.8276 0.69331 36.9696 0.56829C37.0712 1.25024 37.1954 2.10267 37.3309 3.09149C38.1888 3.22788 39.0241 3.37564 39.8256 3.54613C47.8517 5.1714 53.7217 8.0924 55.5617 9.0813C55.494 11.4681 55.0537 19.606 52.2316 28.71C51.2608 31.8128 50.132 34.6998 48.8451 37.3707C48.4274 38.2345 47.9984 39.0642 47.5469 39.8712C48.4951 39.8485 49.4321 39.7689 50.369 39.678C50.8093 38.8255 51.2382 37.9617 51.6446 37.0752C52.7396 34.677 53.7104 32.1311 54.5457 29.4488C58.0113 18.2989 58.0113 8.7744 58 8.3766ZM44.183 45.1335C40.1078 50.6119 35.0393 54.7035 29.0113 57.3518C20.5224 53.6238 13.9299 47.0544 9.34683 37.7572C8.95173 36.9615 8.57922 36.1546 8.21799 35.3249C7.59712 36.0295 7.0327 36.7229 6.50214 37.3934C6.88595 38.2231 7.29233 39.0301 7.69872 39.8144C12.6431 49.2366 19.7096 56.0561 28.5259 59.7954L28.9887 59.9886L29.4628 59.7954C36.5068 56.8062 42.4445 51.8394 47.0615 45.1563C47.6259 44.3493 48.1565 43.5196 48.6758 42.6558C47.7049 42.7126 46.7567 42.7354 45.8311 42.724C45.3118 43.5651 44.7587 44.3607 44.183 45.1335Z" fill="#3EC964"/>
<path d="M29.756 48.0775C29.5076 48.2025 29.2593 48.3275 28.9996 48.4412C28.1869 48.0775 27.4192 47.6797 26.6742 47.2364C20.5446 43.6789 16.8194 37.9506 14.5504 32.3245C14.2231 31.5062 13.9183 30.6878 13.6474 29.8809C12.97 30.4605 12.304 31.0629 11.6719 31.6767C11.9767 32.5177 12.2927 33.3361 12.6427 34.1317C15.589 40.9966 19.9915 46.2021 25.5905 49.4186C26.5387 49.9642 27.5096 50.4529 28.5255 50.8848L28.9883 51.0781L29.4625 50.8848C29.9591 50.6689 30.4558 50.4416 30.9412 50.2029C29.9704 50.0097 29.5415 48.964 29.756 48.0775Z" fill="#3EC964"/>
<path d="M35.2086 9.41155C34.4184 9.28655 33.5943 9.17285 32.759 9.10465C31.5511 8.97965 30.2868 8.92285 28.9999 8.92285C21.6737 8.92285 15.5667 11.0483 12.1576 12.5599C10.3853 13.3442 9.33548 13.9693 9.2113 14.0375L8.75977 14.3102C9.66284 14.5717 10.5433 15.0604 11.04 15.8787C11.0513 15.8901 11.0513 15.9128 11.0626 15.9242C11.0626 15.8787 11.0626 15.8333 11.0626 15.7878C11.5367 15.5378 12.2818 15.1627 13.2413 14.7421C16.4698 13.3328 22.2269 11.3438 28.9999 11.3438C30.3658 11.3438 31.6979 11.4233 32.9622 11.5597C33.8088 11.662 34.6216 11.7757 35.4118 11.9121C35.3553 11.0596 35.2876 10.2299 35.2086 9.41155Z" fill="#3EC964"/>
<path d="M47.4339 16.072C47.2645 16.0038 47.1065 15.9356 46.9485 15.8674C46.9259 16.413 46.8807 17.2086 46.7904 18.2201C46.384 22.4482 45.1197 30.2452 41.1123 37.1556C40.6721 37.9171 40.198 38.6786 39.6787 39.4173C40.5931 39.5537 41.4849 39.656 42.3879 39.747C42.8733 38.9968 43.3362 38.2239 43.7764 37.417C45.0407 35.087 46.1244 32.5183 46.9823 29.7223C48.3821 25.2101 48.9691 21.0843 49.2174 18.3793C49.3868 16.4244 49.3868 15.1968 49.3868 15.0832V15.0605C49.1497 15.8447 48.4273 16.4584 47.4339 16.072Z" fill="#3EC964"/>
<path d="M14.5506 32.3245C13.8959 32.9155 13.2524 33.5293 12.6429 34.1317C11.4237 35.3592 10.3062 36.5867 9.33535 37.7574C8.72578 38.4734 8.18393 39.1667 7.69853 39.8146C7.28086 39.019 6.88576 38.2233 6.50195 37.3936C7.02122 36.7344 7.59693 36.0411 8.2178 35.3251C9.25633 34.1203 10.419 32.8814 11.6833 31.6767C12.3155 31.0629 12.9702 30.4605 13.6588 29.8809C13.9297 30.6878 14.2232 31.5062 14.5506 32.3245Z" fill="#3EC964"/>
<path d="M18.9867 22.8345C18.4336 23.1186 17.8805 23.4141 17.3499 23.7324C15.7357 24.6757 14.2004 25.7669 12.7781 26.9262C12.0669 27.5058 11.3783 28.0968 10.7236 28.6879C9.38026 29.9154 8.13854 31.1883 7.03227 32.4045C6.38883 33.1092 5.79054 33.8025 5.2487 34.4731C4.91004 33.6206 4.57139 32.7455 4.2666 31.8476C4.84231 31.177 5.46318 30.495 6.11791 29.7904C7.2919 28.5401 8.60136 27.2671 10.035 26.0396C10.7123 25.4486 11.4235 24.869 12.1572 24.312C13.9408 22.9481 15.8598 21.6979 17.9143 20.6523L17.9256 20.6636L18.9867 22.8345Z" fill="#3EC964"/>
<path d="M35.4116 11.9112C34.6214 11.7748 33.8087 11.6611 32.962 11.5588C32.9056 10.7177 32.8266 9.888 32.7588 9.0924C32.5105 6.501 32.217 4.1938 31.9799 2.51165C31.8106 1.36371 31.6752 0.499911 31.6074 0.0566406C32.4428 0.0907406 33.2668 0.14757 34.0796 0.22713C34.1699 0.81815 34.3054 1.67058 34.4408 2.71624C34.6892 4.4893 34.9827 6.8307 35.2084 9.4107C35.2875 10.229 35.3552 11.0587 35.4116 11.9112Z" fill="#3EC964"/>
<path d="M40.7514 21.7542V21.7883C40.7514 21.7997 40.7514 21.8224 40.7514 21.8338L38.3469 21.6746C38.3921 21.0722 38.4146 20.4585 38.4259 19.8447C38.4937 17.4693 38.4259 14.9574 38.2679 12.5252C38.2115 11.6614 38.155 10.7976 38.076 9.9679C37.8615 7.3765 37.5793 4.9897 37.331 3.09156C37.1955 2.10274 37.0713 1.25031 36.9697 0.568359C37.8276 0.682019 38.663 0.81841 39.487 0.97753C39.5886 1.7163 39.7128 2.56874 39.837 3.5462C40.0966 5.5579 40.3675 8.0016 40.5707 10.6271C40.6272 11.4795 40.6949 12.3547 40.7401 13.2298C40.8981 16.0827 40.932 19.0264 40.7514 21.7542Z" fill="#3EC964"/>
<path d="M51.645 37.0752C51.2386 37.9617 50.8209 38.8255 50.3694 39.678C49.4438 39.7803 48.5068 39.8484 47.5473 39.8712C47.0732 39.8939 46.5878 39.8939 46.1137 39.8939C44.8832 39.8939 43.6302 39.8371 42.3772 39.7234C41.4741 39.6439 40.571 39.5416 39.668 39.3938C40.1872 38.655 40.6614 37.9049 41.1016 37.132C41.9934 37.2457 42.8852 37.3252 43.7657 37.3821C45.4928 37.4844 47.1861 37.473 48.8455 37.348C49.4663 37.3025 50.0759 37.2457 50.6855 37.1661L51.645 37.0752Z" fill="#3EC964"/>
<path d="M48.6866 42.6677C48.1674 43.5315 47.6368 44.3612 47.0724 45.1681C46.745 45.1795 46.4176 45.1795 46.1016 45.1795C45.4468 45.1795 44.8147 45.1681 44.1825 45.134C42.1845 45.0545 40.3106 44.8499 38.5835 44.5771C37.5562 44.418 36.5854 44.2361 35.6711 44.0315C32.7135 43.3951 30.3768 42.6449 28.9996 42.1676C28.8415 42.1107 28.74 42.0425 28.6045 41.9971L29.3947 39.7012C30.0155 39.9171 30.9073 40.2354 32.0475 40.5764C33.5488 41.031 35.4566 41.5424 37.6917 41.9516C38.5722 42.1221 39.5204 42.2585 40.4912 42.3835C42.1619 42.5881 43.9455 42.7245 45.8419 42.7359C46.7676 42.7472 47.7158 42.7245 48.6866 42.6677Z" fill="#3EC964"/>
<path d="M29.0005 53.2031C30.8895 53.2031 32.4209 51.6612 32.4209 49.7593C32.4209 47.8573 30.8895 46.3154 29.0005 46.3154C27.1114 46.3154 25.5801 47.8573 25.5801 49.7593C25.5801 51.6612 27.1114 53.2031 29.0005 53.2031Z" fill="#FFA41C"/>
<path d="M48.1792 18.5147C50.0682 18.5147 51.5996 16.9729 51.5996 15.0709C51.5996 13.1689 50.0682 11.627 48.1792 11.627C46.2902 11.627 44.7588 13.1689 44.7588 15.0709C44.7588 16.9729 46.2902 18.5147 48.1792 18.5147Z" fill="#FFA41C"/>
<path d="M9.83251 18.5147C11.7215 18.5147 13.2529 16.9729 13.2529 15.0709C13.2529 13.1689 11.7215 11.627 9.83251 11.627C7.94347 11.627 6.41211 13.1689 6.41211 15.0709C6.41211 16.9729 7.94347 18.5147 9.83251 18.5147Z" fill="#FFA41C"/>
<path d="M40.7516 21.0723L40.1646 20.7199C40.0968 20.6745 39.476 20.3107 38.4261 19.8561C36.4845 19.0037 33.0754 17.833 29.0003 17.833C23.0851 17.833 18.5698 20.2994 17.915 20.6745C17.8699 20.6972 17.8473 20.7086 17.836 20.7199L17.249 21.0723V21.7542C17.249 21.8792 17.249 22.618 17.3506 23.7319C17.7344 28.0509 19.6083 38.1778 28.5375 41.9626L28.6052 41.9853L29.0003 42.1558L29.0454 42.1444L29.4744 41.9626C30.4113 41.5648 31.2693 41.0988 32.0595 40.5759C40.5822 34.9158 40.7628 22.7203 40.7628 21.7883V21.7542L40.7516 21.0723ZM39.555 21.7656C39.555 22.2998 39.4647 34.2111 31.3934 39.5644C30.6597 40.0645 29.8582 40.4964 29.0116 40.8487L28.9777 40.8374C20.6468 37.3026 18.9197 27.619 18.5585 23.6296C18.4682 22.6748 18.4569 22.0156 18.4569 21.7656L18.5472 21.7201C18.9987 21.4587 23.3109 19.0491 29.0116 19.0491C32.7819 19.0491 35.954 20.0948 37.952 20.97C38.8777 21.3678 39.4308 21.6974 39.555 21.7656Z" fill="white"/>
<path d="M29 19.0488C23.2993 19.0488 18.9872 21.4584 18.5356 21.7198L18.4453 21.7653C18.4453 22.0153 18.4566 22.6745 18.5469 23.6292C18.9081 27.63 20.6353 37.3023 28.9661 40.837L29 40.8484C29.8466 40.4961 30.6481 40.0642 31.3819 39.5641C39.4531 34.2108 39.5434 22.2994 39.5434 21.7653C39.4305 21.6971 38.8661 21.3788 37.9404 20.9696C35.9537 20.0945 32.7816 19.0488 29 19.0488ZM29.9257 29.7213V31.4603C29.9257 31.9717 29.5193 32.3809 29.0113 32.3809C28.5033 32.3809 28.0969 31.9717 28.0969 31.4603V29.7213C27.2729 29.3576 26.6972 28.5393 26.6972 27.5845C26.6972 26.3002 27.7357 25.2545 29.0113 25.2545C30.2869 25.2545 31.3254 26.3002 31.3254 27.5845C31.3141 28.5393 30.7384 29.369 29.9257 29.7213Z" fill="#3EC964"/>
<path d="M29 19.0488C23.2993 19.0488 18.9872 21.4584 18.5356 21.7198L18.4453 21.7653C18.4453 22.0153 18.4566 22.6745 18.5469 23.6292C18.9081 27.63 20.6353 37.3023 28.9661 40.837L29 40.8484C29.8466 40.4961 30.6481 40.0642 31.3819 39.5641C39.4531 34.2108 39.5434 22.2994 39.5434 21.7653C39.4305 21.6971 38.8661 21.3788 37.9404 20.9696C35.9537 20.0945 32.7816 19.0488 29 19.0488ZM29.9257 29.7213V31.4603C29.9257 31.9717 29.5193 32.3809 29.0113 32.3809C28.5033 32.3809 28.0969 31.9717 28.0969 31.4603V29.7213C27.2729 29.3576 26.6972 28.5393 26.6972 27.5845C26.6972 26.3002 27.7357 25.2545 29.0113 25.2545C30.2869 25.2545 31.3254 26.3002 31.3254 27.5845C31.3141 28.5393 30.7384 29.369 29.9257 29.7213Z" fill="#025FCA"/>
</g>
<path d="M81.3153 8L90.2205 39.0235H90.5597L99.4648 8H112.78L98.447 52H82.333L68 8H81.3153ZM116.962 52V8H148.257V17.625H128.751V25.1875H146.646V34.8125H128.751V42.375H148.173V52H116.962ZM154.104 52V8H185.399V17.625H165.893V25.1875H183.788V34.8125H165.893V42.375H185.314V52H154.104ZM191.246 52V8H209.989C213.212 8 216.032 8.64453 218.448 9.93358C220.866 11.2227 222.746 13.0345 224.089 15.3692C225.432 17.7038 226.103 20.4323 226.103 23.5547C226.103 26.7058 225.41 29.4342 224.025 31.7403C222.654 34.0462 220.724 35.8223 218.236 37.0684C215.764 38.3145 212.873 38.9376 209.565 38.9376H198.37V29.6563H207.191C208.576 29.6563 209.756 29.4127 210.731 28.9258C211.72 28.4245 212.477 27.7155 213 26.7988C213.537 25.8822 213.805 24.8008 213.805 23.5547C213.805 22.2943 213.537 21.22 213 20.3321C212.477 19.4298 211.72 18.7422 210.731 18.2696C209.756 17.7825 208.576 17.5391 207.191 17.5391H203.034V52H191.246ZM268 8V52H258.161L242.471 28.8829H242.217V52H230.429V8H240.436L255.872 31.0312H256.211V8H268Z" fill="white"/>
</g>
<defs>
<clipPath id="clip0_520_6">
<rect width="268" height="60" fill="white"/>
</clipPath>
</defs>
</svg>
