<?xml version="1.0" encoding="UTF-8"?>
<svg version="1.1" xmlns="http://www.w3.org/2000/svg" width="512" height="512">
<path d="M0 0 C7.37295604 2.6211438 14.31115452 2.9394054 22.09289551 2.62994385 C25.70280476 2.49325755 29.31366031 2.45978424 32.92578125 2.42578125 C33.63395996 2.41829865 34.34213867 2.41081604 35.07177734 2.40310669 C51.67112548 2.30385035 67.36951981 6.32546893 83.05859375 11.42578125 C83.76290527 11.65104492 84.4672168 11.87630859 85.19287109 12.10839844 C106.63060532 19.10271407 125.64450684 31.09087035 143.125 45.10546875 C146.01122616 47.4527777 146.01122616 47.4527777 149.05859375 49.42578125 C149.74824219 48.50796875 150.43789063 47.59015625 151.1484375 46.64453125 C164.73654248 28.79158214 181.68100431 16.45266191 203.99609375 12.05078125 C226.31831511 9.11683075 247.36063856 13.56488202 266.05859375 26.42578125 C283.87281258 40.40916463 295.63371733 59.54787253 298.70703125 82.05078125 C301.03556058 104.40466277 295.07839982 125.76381915 281.05859375 143.42578125 C278.47035794 146.20157038 275.82270295 148.86056066 273.0625 151.46484375 C271.00120822 153.2684774 271.00120822 153.2684774 270.05859375 155.42578125 C271.21359375 155.75578125 272.36859375 156.08578125 273.55859375 156.42578125 C285.17947562 160.33612539 296.01483933 166.12155019 305.05859375 174.42578125 C305.88746094 175.15152344 306.71632813 175.87726563 307.5703125 176.625 C317.71023439 186.01956775 323.8516852 197.39311928 328.06640625 210.4296875 C329.02205297 213.56730579 329.02205297 213.56730579 330.80859375 216.86328125 C332.92470032 222.89418497 332.89273926 229.08473975 333.05859375 235.42578125 C333.0858252 236.32103516 333.11305664 237.21628906 333.14111328 238.13867188 C334.48708155 288.35429291 313.49523527 331.77040546 279.45532227 367.9543457 C239.34284212 409.64199433 176.23531595 433.81529605 118.7734375 435.5234375 C117.39865234 435.50603516 117.39865234 435.50603516 115.99609375 435.48828125 C115.05636719 435.47925781 114.11664063 435.47023438 113.1484375 435.4609375 C112.11396484 435.44353516 112.11396484 435.44353516 111.05859375 435.42578125 C111.05859375 436.08578125 111.05859375 436.74578125 111.05859375 437.42578125 C80.27206113 437.49426629 49.48554599 437.54733465 18.69895536 437.57897724 C15.06167324 437.58272921 11.42439127 437.5866122 7.78710938 437.59057617 C7.06301309 437.5913631 6.3389168 437.59215003 5.59287821 437.59296081 C-6.12096886 437.60600333 -17.83477162 437.6296508 -29.54859243 437.65723964 C-41.57422992 437.68532599 -53.59984425 437.70196433 -65.6255132 437.70804673 C-72.37754945 437.71178836 -79.12949342 437.72076353 -85.88149643 437.74297142 C-92.23929451 437.76336342 -98.596951 437.76960948 -104.95477867 437.76510429 C-107.28556907 437.76592827 -109.61636431 437.7718776 -111.94712639 437.78339767 C-115.1361372 437.79838398 -118.32461756 437.79471222 -121.51364136 437.7865448 C-122.43001338 437.79528332 -123.3463854 437.80402185 -124.29052627 437.81302518 C-134.37665019 437.74348734 -143.19746421 434.99774739 -150.94140625 428.42578125 C-159.39142294 419.51451911 -160.38454357 410.53301603 -160.3137207 398.68530273 C-160.31615231 397.30633266 -160.3198752 395.92736436 -160.32478333 394.54840088 C-160.33414467 390.82322157 -160.3248077 387.0983072 -160.3114512 383.37314868 C-160.30008721 379.46467246 -160.30424796 375.55620834 -160.30619812 371.64772034 C-160.30707943 365.08679913 -160.29603399 358.52598157 -160.27758789 351.96508789 C-160.25641394 344.39080911 -160.25291326 336.81668199 -160.25914985 329.24237961 C-160.26485339 321.94025838 -160.25918675 314.6381903 -160.2479763 307.33607674 C-160.24334433 304.23537267 -160.24245037 301.13470125 -160.24456215 298.03399467 C-160.24645211 294.38053084 -160.23828703 290.72722037 -160.22250175 287.0737915 C-160.21626768 285.1011705 -160.21975594 283.12852621 -160.22357178 281.15589905 C-160.18766045 275.15214849 -159.90211981 270.10064298 -157.94140625 264.42578125 C-157.62496501 258.9897728 -158.2214361 253.93813802 -159.00927734 248.5625 C-167.17458662 191.65444617 -155.18955084 130.48042001 -121.16796875 83.5 C-118.16016349 79.50548928 -115.11343982 75.60363618 -111.58203125 72.0546875 C-105.76905199 65.94281391 -105.2751394 61.20087278 -105.15649414 53.10644531 C-104.97264487 40.96985783 -99.71738306 30.75366358 -91.5703125 21.828125 C-68.16101376 -0.67680262 -31.03415601 -11.94381917 0 0 Z " fill="#D9E3F5" transform="translate(169.94140625,39.57421875)"/>
<path d="M0 0 C1.61230751 0.00424484 1.61230751 0.00424484 3.25718689 0.00857544 C6.65985677 0.01968976 10.06225464 0.04477803 13.46484375 0.0703125 C15.78450138 0.08035361 18.10416318 0.08947747 20.42382812 0.09765625 C26.08342472 0.11960038 31.74286479 0.15298985 37.40234375 0.1953125 C37.64766846 0.97205322 37.89299316 1.74879395 38.14575195 2.54907227 C52.94726175 49.27071631 70.44440438 94.57884905 91.15234375 139.0078125 C91.46097351 139.67063232 91.76960327 140.33345215 92.08758545 141.01635742 C92.95503707 142.87565611 93.82617045 144.73316745 94.69921875 146.58984375 C95.19776367 147.65050049 95.69630859 148.71115723 96.20996094 149.80395508 C97.19260488 152.09133168 97.19260488 152.09133168 98.40234375 153.1953125 C117.54617373 113.42210774 133.82104779 72.86309209 147.46484375 30.8828125 C147.80134949 29.84988068 147.80134949 29.84988068 148.14465332 28.79608154 C151.21433783 19.33583052 153.92731623 9.82750279 156.40234375 0.1953125 C160.3126221 0.1451015 164.22277031 0.10921855 168.13330078 0.08544922 C170.10195532 0.07069026 172.07052065 0.04525089 174.0390625 0.01953125 C202.97473967 -0.12735036 229.76178191 9.82561104 250.85302734 29.6328125 C257.72902575 36.56732082 263.51497539 44.76881534 268.40234375 53.1953125 C274.89690418 49.26473685 281.03377803 45.04904281 287.01391602 40.37255859 C291.78978994 36.64414022 296.64417964 33.03185928 301.52734375 29.4453125 C302.72484253 28.56540649 302.72484253 28.56540649 303.9465332 27.66772461 C305.59151743 26.45974306 307.23678469 25.25214686 308.88232422 24.04492188 C313.12178443 20.93330101 317.35577978 17.81426986 321.58984375 14.6953125 C322.35506348 14.13231445 323.1202832 13.56931641 323.90869141 12.98925781 C328.75966142 9.41732512 333.58918445 5.81803284 338.40234375 2.1953125 C341.47192747 3.5376611 343.28973302 4.91955691 345.3984375 7.51171875 C345.95023682 8.18468994 346.50203613 8.85766113 347.07055664 9.55102539 C347.94635376 10.64338501 347.94635376 10.64338501 348.83984375 11.7578125 C349.45529053 12.51505615 350.0707373 13.2722998 350.70483398 14.05249023 C355.43064724 19.90035919 360.01140097 25.85390973 364.54736328 31.84960938 C370.31178337 39.45049755 376.3439171 46.82802772 382.40234375 54.1953125 C380.08125775 57.19847202 377.81167764 59.88310736 374.90234375 62.3203125 C371.37770673 65.33394267 367.93722622 68.428063 364.52734375 71.5703125 C358.38846059 77.21800796 352.19067433 82.7980354 345.98046875 88.3671875 C340.91362366 92.91766621 335.87871887 97.50137217 330.86376953 102.10888672 C326.92441829 105.7251127 322.9530811 109.30413655 318.97265625 112.875 C316.05805928 115.50611033 313.16695151 118.16183725 310.27734375 120.8203125 C306.43027459 124.35850611 302.54331176 127.83953969 298.5859375 131.25390625 C296.81930616 132.82459637 295.09251107 134.41955339 293.375 136.04296875 C287.07814297 141.9870007 280.88325887 147.74150068 273.40234375 152.1953125 C272.69722656 152.62714844 271.99210937 153.05898438 271.265625 153.50390625 C262.28260054 158.03461143 249.81632429 157.64388057 240.16796875 155.46484375 C234.84549631 153.4399901 230.19724737 150.2283304 225.40234375 147.1953125 C225.42852783 148.07155273 225.45471191 148.94779297 225.48168945 149.85058594 C225.56787068 153.16081782 225.63004632 156.46982627 225.67700195 159.78076172 C225.7018576 161.20250479 225.73575576 162.62412411 225.77954102 164.04541016 C226.12726792 175.63903409 224.74895944 185.60226922 216.77734375 194.6328125 C208.63703525 202.0612309 199.2071132 204.34665616 188.52267456 204.33575439 C187.61568034 204.33872552 186.70868613 204.34169664 185.77420723 204.3447578 C182.72820568 204.35344478 179.68224343 204.35495306 176.63623047 204.35644531 C174.45484839 204.36107355 172.27346712 204.36609822 170.09208679 204.37149048 C164.16002352 204.38461747 158.22797158 204.39106023 152.29589605 204.39550114 C148.58913998 204.39843188 144.882387 204.40253673 141.17563248 204.40700531 C128.90965262 204.4214683 116.64368126 204.4307962 104.37769364 204.43487182 C103.71648247 204.43509459 103.05527131 204.43531736 102.37402344 204.43554688 C101.71200145 204.4357683 101.04997947 204.43598973 100.36789621 204.43621787 C90.31619966 204.43991744 80.26456322 204.45472671 70.21289062 204.4765625 C58.53355292 204.50184987 46.85426246 204.51674019 35.17489636 204.51824832 C28.99524897 204.51929577 22.81569764 204.52519086 16.63607407 204.54306793 C10.81992136 204.55956575 5.00393673 204.5616957 -0.81223106 204.55292892 C-2.9430645 204.55215942 -5.07390704 204.55648974 -7.20471764 204.56638718 C-10.12203874 204.57913946 -13.03876752 204.5732119 -15.95608521 204.56280518 C-16.79190978 204.57086158 -17.62773436 204.57891798 -18.48888695 204.58721852 C-28.33264676 204.50554451 -37.06248257 201.59010549 -44.59765625 195.1953125 C-53.03009349 186.30258938 -54.04220319 177.32682753 -53.98583984 165.50244141 C-53.98991117 164.12833745 -53.99525618 162.75423676 -54.00177002 161.38014221 C-54.01538549 157.66717053 -54.01016835 153.95445041 -54.00063276 150.24147463 C-53.99300303 146.34240352 -54.00009122 142.44335302 -54.00479126 138.54428101 C-54.0102405 131.99595298 -54.00308046 125.44772663 -53.98876953 118.89941406 C-53.97245822 111.34901216 -53.97772375 103.79885352 -53.99424875 96.24845755 C-54.00790372 89.74711114 -54.00976334 83.24583758 -54.00193274 76.74448144 C-53.99727643 72.86985251 -53.99657442 68.99533753 -54.00654221 65.12071609 C-54.01526776 61.47457808 -54.00908919 57.8287506 -53.99185944 54.1826458 C-53.98605973 52.2213317 -53.9948632 50.25999105 -54.00424194 48.2986908 C-53.91206619 35.34772344 -50.83706164 27.15437601 -42.59765625 17.1953125 C-42.00082031 16.46054687 -41.40398438 15.72578125 -40.7890625 14.96875 C-30.14031013 3.10626886 -15.26197998 -0.15364585 0 0 Z " fill="#073989" transform="translate(63.59765625,272.8046875)"/>
<path d="M0 0 C2.64453125 2.2421875 2.64453125 2.2421875 5.0703125 4.734375 C11.10634902 10.91859573 15.45150859 12.16675619 24.01953125 12.875 C31.83814849 13.66697201 37.89566429 16.49314373 43.1796875 22.32421875 C50.88380301 32.411474 51.87621518 44.41437614 50.33984375 56.67333984 C48.82551172 66.88156021 46.66510348 76.62485229 42.48779297 86.09326172 C40.71366785 90.248657 40.4152685 92.88829629 41.64453125 97.2421875 C41.98871094 97.92796875 42.33289063 98.61375 42.6875 99.3203125 C45.05185113 104.06831559 44.13851544 110.48508175 42.64453125 115.4296875 C40.22496548 121.10990618 35.24827038 124.88114205 29.89453125 127.6796875 C27.64453125 128.2421875 27.64453125 128.2421875 23.64453125 128.2421875 C23.63035156 128.79003906 23.61617187 129.33789062 23.6015625 129.90234375 C22.50936516 148.05643472 13.56225691 163.40902006 0.62890625 175.7578125 C-4.99905299 180.44286758 -11.37422355 184.91510577 -18.35546875 187.2421875 C-17.93949312 188.63822693 -17.52262192 190.03399949 -17.10546875 191.4296875 C-16.70134766 192.78707031 -16.70134766 192.78707031 -16.2890625 194.171875 C-15.63324066 196.32867822 -14.9569073 198.47929937 -14.265625 200.625 C-13.90339844 201.75679687 -13.54117188 202.88859375 -13.16796875 204.0546875 C-12.82378906 205.11300781 -12.47960937 206.17132813 -12.125 207.26171875 C-10.81026575 212.35381131 -10.81026575 212.35381131 -11.35546875 215.2421875 C-13.73923413 217.27803226 -15.94502629 218.88417045 -18.57421875 220.54296875 C-19.30668823 221.024207 -20.03915771 221.50544525 -20.79382324 222.00126648 C-23.13738383 223.53563593 -25.49583353 225.04518321 -27.85546875 226.5546875 C-29.4463521 227.59020146 -31.03621024 228.62729232 -32.625 229.66601562 C-36.52349265 232.20986149 -40.43551107 234.73155696 -44.35546875 237.2421875 C-41.55280503 239.43423071 -38.71283456 241.23977664 -35.58984375 242.94140625 C-34.25566406 243.67133789 -34.25566406 243.67133789 -32.89453125 244.41601562 C-31.97414062 244.91552734 -31.05375 245.41503906 -30.10546875 245.9296875 C-28.70167969 246.69635742 -28.70167969 246.69635742 -27.26953125 247.47851562 C-24.96634755 248.73586591 -22.66163309 249.99031509 -20.35546875 251.2421875 C-21.11859375 252.1703125 -21.88171875 253.0984375 -22.66796875 254.0546875 C-23.20139893 254.7144458 -23.7348291 255.3742041 -24.28442383 256.05395508 C-26.35546875 258.2421875 -26.35546875 258.2421875 -29.24487305 260.2487793 C-33.58486464 263.53606408 -36.86538479 266.24947497 -37.77886963 271.82769775 C-38.09509442 279.61695997 -37.07842752 287.33253019 -36.16796875 295.0546875 C-35.93659259 297.37120548 -35.71063803 299.68827168 -35.49023438 302.00585938 C-34.63130085 310.81801531 -33.71289343 319.61798256 -32.54345703 328.39477539 C-31.16912559 339.34279483 -30.8233033 347.19140528 -36.60546875 357.0546875 C-37.12238281 358.04404297 -37.63929688 359.03339844 -38.171875 360.05273438 C-41.88013246 367.00451936 -41.88013246 367.00451936 -44.35546875 368.2421875 C-56.13432655 343.88777039 -67.218069 319.32683522 -77.35546875 294.2421875 C-77.64766296 293.51942627 -77.93985718 292.79666504 -78.24090576 292.05200195 C-85.35078495 274.41214911 -91.71893518 256.57685968 -97.60546875 238.4921875 C-97.89054291 237.617901 -98.17561707 236.7436145 -98.46932983 235.84283447 C-99.27622133 233.35813404 -100.07552108 230.87115773 -100.87109375 228.3828125 C-101.1089711 227.64684845 -101.34684845 226.9108844 -101.5919342 226.15261841 C-102.84075487 222.20250843 -103.78749187 218.34674561 -104.35546875 214.2421875 C-111.11443944 214.30970766 -117.87285512 214.39971099 -124.63134766 214.50463867 C-126.92587669 214.53769408 -129.22048325 214.56578495 -131.51513672 214.58862305 C-134.83203882 214.62252787 -138.14824267 214.67485929 -141.46484375 214.73046875 C-142.97966339 214.74005363 -142.97966339 214.74005363 -144.52508545 214.74983215 C-158.44735644 215.03100418 -170.97557624 218.78839836 -181.16796875 228.5546875 C-184.69661385 232.27972039 -187.57542742 236.22462034 -190.26171875 240.58984375 C-190.803125 241.40775391 -190.803125 241.40775391 -191.35546875 242.2421875 C-191.68546875 242.2421875 -192.01546875 242.2421875 -192.35546875 242.2421875 C-192.83935427 239.30539803 -193.31764286 236.36786474 -193.79296875 233.4296875 C-193.92767578 232.61564453 -194.06238281 231.80160156 -194.20117188 230.96289062 C-203.31520096 174.27807561 -190.61209892 113.50341171 -157.92675781 66.17333984 C-154.55132839 61.51220763 -151.06035392 56.95554064 -146.99609375 52.87109375 C-141.18311449 46.75922016 -140.6892019 42.01727903 -140.57055664 33.92285156 C-140.38670737 21.78626408 -135.13144556 11.57006983 -126.984375 2.64453125 C-90.41555261 -32.51152832 -38.6933726 -29.74784597 0 0 Z " fill="#F89986" transform="translate(205.35546875,58.7578125)"/>
<path d="M0 0 C17.98379921 15.00321291 29.00394566 34.428601 31.43554688 57.77197266 C33.07802236 80.42680699 25.62056862 101.36970863 11.00976562 118.63916016 C-1.33189729 131.84016848 -18.76503191 140.77351784 -36.56445312 143.77197266 C-41.26625663 143.88178779 -45.93215867 143.57919276 -50.62695312 143.33447266 C-64.6100082 142.90868139 -75.00731868 145.9647229 -87.93164062 151.58447266 C-92.82564894 153.65568761 -96.28295366 154.43441843 -101.56445312 153.77197266 C-104.37448773 151.97833355 -106.0738578 150.7531633 -107.56445312 147.77197266 C-107.61166319 145.73345675 -107.60172728 143.69350694 -107.56445312 141.65478516 C-106.85349346 124.02565331 -106.85349346 124.02565331 -115.14257812 109.31884766 C-126.70142327 97.16341696 -129.96919412 77.5016936 -129.93481445 61.41381836 C-129.62617022 49.69705802 -126.70233752 38.74554602 -121.02929688 28.48291016 C-119.46172769 25.70508152 -119.46172769 25.70508152 -118.18554688 22.33056641 C-116.4686501 18.56166771 -114.36853065 15.57217753 -111.68945312 12.45947266 C-111.20968018 11.90114746 -110.72990723 11.34282227 -110.2355957 10.76757812 C-82.63916714 -20.3111196 -33.07484401 -25.96230733 0 0 Z " fill="#F9B054" transform="translate(437.564453125,67.22802734375)"/>
<path d="M0 0 C4.82035549 0.23968618 6.90770057 2.12651965 10.1875 5.5625 C12.24741561 8.81646838 12.43158997 11.37024951 12.375 15.1875 C12.36533203 16.62996094 12.36533203 16.62996094 12.35546875 18.1015625 C12.1875 20.5625 12.1875 20.5625 11.1875 22.5625 C12.23808594 22.01980469 13.28867187 21.47710937 14.37109375 20.91796875 C29.77572361 13.03200301 47.30946447 5.72664364 64.9375 10.625 C69.91890111 12.52353763 73.43653892 15.87107799 77.1875 19.5625 C78.363125 20.5834375 78.363125 20.5834375 79.5625 21.625 C88.31708724 32.06316171 84.9857726 58.4689055 83.96923828 71.32226562 C79.07271802 117.68861216 50.54684732 162.47708181 14.85546875 191.66796875 C-24.86665933 223.31501336 -81.58812209 245.27420099 -132.875 244.625 C-133.81472656 244.61597656 -134.75445312 244.60695313 -135.72265625 244.59765625 C-136.75712891 244.58025391 -136.75712891 244.58025391 -137.8125 244.5625 C-137.8125 245.2225 -137.8125 245.8825 -137.8125 246.5625 C-144.4125 246.5625 -151.0125 246.5625 -157.8125 246.5625 C-155.57668528 245.44459264 -153.32856627 244.34817674 -151.04296875 243.3359375 C-141.27674872 238.84773882 -135.54493424 233.73633407 -131.64648438 223.65234375 C-129.95425815 217.38278429 -130.12622569 210.89009646 -130.0625 204.4375 C-130.03428052 202.98954862 -130.00434495 201.54162961 -129.97265625 200.09375 C-129.89950756 196.58348508 -129.84950337 193.07335404 -129.8125 189.5625 C-127.66050881 190.63593641 -125.51353352 191.71629526 -123.375 192.81640625 C-122.529375 193.24824219 -121.68375 193.68007813 -120.8125 194.125 C-119.966875 194.55941406 -119.12125 194.99382812 -118.25 195.44140625 C-109.55790037 199.43921489 -97.35978978 198.79723877 -88.21484375 196.76171875 C-75.70606415 191.96586254 -66.23215185 181.27299808 -56.70703125 172.2109375 C-53.43913382 169.11872461 -50.08305444 166.14505161 -46.68530273 163.19677734 C-44.05944682 160.90535778 -41.49920975 158.55051758 -38.9375 156.1875 C-35.24777804 152.79127865 -31.5454327 149.41133673 -27.8125 146.0625 C-24.1241951 142.75248278 -20.46184235 139.415355 -16.8125 136.0625 C-10.71262856 130.45946824 -4.55688837 124.92037086 1.609375 119.390625 C6.2568601 115.21676896 10.88839554 111.02593941 15.5 106.8125 C16.46550781 105.93078125 17.43101562 105.0490625 18.42578125 104.140625 C21.07554708 101.66701051 23.64113058 99.14133679 26.1875 96.5625 C25.6298999 95.89214722 25.6298999 95.89214722 25.06103516 95.20825195 C18.14625602 86.88388071 11.3195185 78.52755184 4.77734375 69.90625 C1.13509247 65.15233667 -2.69612713 60.54635075 -6.52368164 55.94116211 C-7.31633423 54.97835327 -7.31633423 54.97835327 -8.125 53.99609375 C-8.59550781 53.42947021 -9.06601562 52.86284668 -9.55078125 52.27905273 C-10.90925151 50.43087078 -11.94842879 48.68892313 -12.8125 46.5625 C-11.94921875 44.4921875 -11.94921875 44.4921875 -10.5 42.4375 C-10.02949219 41.75429688 -9.55898438 41.07109375 -9.07421875 40.3671875 C-8.65785156 39.77164063 -8.24148438 39.17609375 -7.8125 38.5625 C-6.31215724 35.56181448 -6.75800776 32.8487494 -6.8203125 29.5078125 C-6.83783285 28.07422588 -6.85474074 26.64063166 -6.87109375 25.20703125 C-6.90203214 22.94656423 -6.93752101 20.68647571 -6.98388672 18.42626953 C-7.02630026 16.24506952 -7.04968878 14.06431289 -7.0703125 11.8828125 C-7.0923877 10.57586426 -7.11446289 9.26891602 -7.13720703 7.92236328 C-6.61424387 2.51107078 -5.41084962 0.79832208 0 0 Z " fill="#ACC0E6" transform="translate(418.8125,230.4375)"/>
<path d="M0 0 C2.64453125 2.2421875 2.64453125 2.2421875 5.0703125 4.734375 C11.10634902 10.91859573 15.45150859 12.16675619 24.01953125 12.875 C31.83814849 13.66697201 37.89566429 16.49314373 43.1796875 22.32421875 C50.89198953 32.42219287 51.8317633 44.37269332 50.35595703 56.64111328 C48.50558362 69.5738574 44.84173353 81.28570249 39.64453125 93.2421875 C37.62945587 92.23690381 35.61657403 91.22796742 33.609375 90.20703125 C32.94035156 89.86800781 32.27132812 89.52898437 31.58203125 89.1796875 C30.57462891 88.66728516 30.57462891 88.66728516 29.546875 88.14453125 C27.50124811 87.12728369 27.50124811 87.12728369 24.64453125 86.2421875 C24.64453125 93.8321875 24.64453125 101.4221875 24.64453125 109.2421875 C21.67453125 109.2421875 18.70453125 109.2421875 15.64453125 109.2421875 C14.80673689 99.53274934 14.52176508 89.98163722 14.64453125 80.2421875 C13.86335937 79.95730469 13.0821875 79.67242187 12.27734375 79.37890625 C7.36586789 77.2583729 5.35362598 73.10299536 3.35351562 68.32641602 C2.02470664 64.42006535 1.5240377 60.37907812 0.95703125 56.3046875 C0.82748047 55.43005859 0.69792969 54.55542969 0.56445312 53.65429688 C0.24928652 51.51816764 -0.05429128 49.38033395 -0.35546875 47.2421875 C-1.09796875 48.325 -1.09796875 48.325 -1.85546875 49.4296875 C-7.8174191 56.13688164 -15.61762452 58.68926091 -23.98046875 61.3671875 C-25.05514404 61.71628174 -26.12981934 62.06537598 -27.23706055 62.42504883 C-34.14747324 64.63176594 -41.00227027 66.59270303 -48.15527344 67.84863281 C-51.00054938 68.35757476 -53.83742333 68.90693735 -56.67578125 69.453125 C-76.556584 73.24211682 -76.556584 73.24211682 -86.04296875 74.2421875 C-93.34971874 75.13877265 -97.76511538 77.44733255 -102.73046875 82.8046875 C-106.00823671 87.72133944 -106.73020938 91.59023744 -106.98046875 97.4921875 C-107.01914063 98.23726563 -107.0578125 98.98234375 -107.09765625 99.75 C-107.19151983 101.5803399 -107.27456593 103.41122893 -107.35546875 105.2421875 C-110.32546875 105.2421875 -113.29546875 105.2421875 -116.35546875 105.2421875 C-116.33484375 104.04722656 -116.31421875 102.85226563 -116.29296875 101.62109375 C-116.02394584 91.20530921 -116.02394584 91.20530921 -120.91796875 82.4921875 C-121.63597656 81.83863281 -122.35398437 81.18507813 -123.09375 80.51171875 C-127.64831738 75.94141884 -130.34183306 69.8935934 -133.35546875 64.2421875 C-133.77957031 63.48679687 -134.20367187 62.73140625 -134.640625 61.953125 C-140.88000132 50.42332694 -142.31211849 36.8274419 -139.69921875 24.02734375 C-138.78262254 21.27360426 -137.70080887 18.81274809 -136.35546875 16.2421875 C-135.64390625 14.87707031 -135.64390625 14.87707031 -134.91796875 13.484375 C-125.47507338 -2.81369922 -106.38065577 -14.85215536 -88.40234375 -19.91015625 C-55.71713083 -28.56622174 -26.40770975 -20.30250736 0 0 Z " fill="#162B56" transform="translate(205.35546875,58.7578125)"/>
<path d="M0 0 C0.66 0 1.32 0 2 0 C2.18433594 0.74121094 2.36867187 1.48242188 2.55859375 2.24609375 C6.43233204 16.31206788 13.21270998 29.14597538 23 40 C21.297302 41.135132 19.58473013 42.25653447 17.84375 43.33203125 C12.83087448 46.49849762 9.19130424 48.9289963 7.45703125 54.85546875 C6.04310464 61.49004747 6.50342929 67.86121013 9.53515625 73.95703125 C12.84899377 78.57872998 17.71925235 81.45563551 23.19140625 82.76171875 C24.58166016 83.37466797 24.58166016 83.37466797 26 84 C27.06640625 86.8359375 27.06640625 86.8359375 27.5625 90.375 C29.61293297 101.97831721 34.22936493 111.40826699 41 121 C41.44859375 121.63550781 41.8971875 122.27101563 42.359375 122.92578125 C48.89212972 131.28386449 58.62462702 137.28863832 68 142 C66.68644483 148.68718997 64.78082803 155.05772907 62.58911133 161.50195312 C61.15644238 165.70994511 61.15644238 165.70994511 62 170 C63.45228273 171.25948385 63.45228273 171.25948385 65.2890625 172.34765625 C65.97677734 172.78343994 66.66449219 173.21922363 67.37304688 173.66821289 C68.11619141 174.12832764 68.85933594 174.58844238 69.625 175.0625 C71.16979602 176.04083789 72.71405555 177.02002335 74.2578125 178 C75.04446289 178.49628906 75.83111328 178.99257813 76.64160156 179.50390625 C80.28766675 181.81685526 83.89869929 184.18062426 87.5 186.5625 C88.460271 187.18813843 88.460271 187.18813843 89.43994141 187.82641602 C93.88413475 190.7682695 93.88413475 190.7682695 95 193 C87.41 196.96 79.82 200.92 72 205 C71.66324775 207.9711518 71.66324775 207.9711518 73.37695312 209.51123047 C74.00537109 210.04119629 74.63378906 210.57116211 75.28125 211.1171875 C75.95800781 211.725625 76.63476562 212.3340625 77.33203125 212.9609375 C78.75813201 214.22001745 80.20328118 215.45789971 81.66796875 216.671875 C84.74513476 219.49700646 86.82651191 221.58538207 87.34872437 225.8434906 C87.31791779 226.88699173 87.28711121 227.93049286 87.25537109 229.00561523 C87.22542053 230.1572113 87.19546997 231.30880737 87.16461182 232.49530029 C86.91593139 237.78987896 86.60714927 243.07096209 86.1953125 248.35546875 C86.11127167 249.46432938 86.02723083 250.57319 85.94064331 251.71565247 C85.76332823 254.03076954 85.58338486 256.34568674 85.40087891 258.66040039 C85.12275141 262.2162481 84.85991143 265.77302864 84.59765625 269.33007812 C84.4227992 271.58861341 84.24705084 273.84707991 84.0703125 276.10546875 C83.99313995 277.16992722 83.91596741 278.23438568 83.8364563 279.33110046 C83.75652435 280.31004776 83.67659241 281.28899506 83.59423828 282.29760742 C83.52761993 283.15996506 83.46100159 284.02232269 83.3923645 284.91081238 C83 287 83 287 81 289 C67.866859 259.6492926 56.21992284 229.77717756 45.75 199.375 C45.47728271 198.58802734 45.20456543 197.80105469 44.92358398 196.99023438 C41.73007246 187.74180942 38.95274163 178.60202955 37 169 C30.24102931 169.06752016 23.48261363 169.15752349 16.72412109 169.26245117 C14.42959206 169.29550658 12.1349855 169.32359745 9.84033203 169.34643555 C6.52342993 169.38034037 3.20722608 169.43267179 -0.109375 169.48828125 C-1.62419464 169.49786613 -1.62419464 169.49786613 -3.1696167 169.50764465 C-17.09188769 169.78881668 -29.62010749 173.54621086 -39.8125 183.3125 C-43.3411451 187.03753289 -46.21995867 190.98243284 -48.90625 195.34765625 C-49.2671875 195.89292969 -49.628125 196.43820312 -50 197 C-50.33 197 -50.66 197 -51 197 C-51.48388552 194.06321053 -51.96217411 191.12567724 -52.4375 188.1875 C-52.57220703 187.37345703 -52.70691406 186.55941406 -52.84570312 185.72070312 C-61.95973221 129.03588811 -49.25663017 68.26122421 -16.57128906 20.93115234 C-13.85009153 17.17344929 -10.94897028 13.58196901 -8 10 C-6.84951172 8.51306641 -6.84951172 8.51306641 -5.67578125 6.99609375 C-1.61149975 1.74974115 -1.61149975 1.74974115 0 0 Z " fill="#E7EEFA" transform="translate(64,104)"/>
<path d="M0 0 C4.82035549 0.23968618 6.90770057 2.12651965 10.1875 5.5625 C12.24741561 8.81646838 12.43158997 11.37024951 12.375 15.1875 C12.36855469 16.14914063 12.36210937 17.11078125 12.35546875 18.1015625 C12.1875 20.5625 12.1875 20.5625 11.1875 22.5625 C12.23808594 22.01980469 13.28867187 21.47710937 14.37109375 20.91796875 C29.77572361 13.03200301 47.30946447 5.72664364 64.9375 10.625 C69.91890111 12.52353763 73.43653892 15.87107799 77.1875 19.5625 C78.363125 20.5834375 78.363125 20.5834375 79.5625 21.625 C83.12878076 25.87710398 83.6442384 30.83024446 83.5 36.203125 C81.97889701 47.68745254 72.88623387 56.76681101 64.1875 63.5625 C54.8286282 69.82499147 44.89957742 74.96871543 34.875 80.0625 C33.44050653 80.79638913 32.00626036 81.53076184 30.57226562 82.265625 C27.11348883 84.03681096 23.65147969 85.80151282 20.1875 87.5625 C10.59911879 78.05854104 2.46548982 67.20424394 -5.8125 56.5625 C-6.555 55.60988281 -7.2975 54.65726562 -8.0625 53.67578125 C-9.6479408 51.63964054 -11.23093451 49.60164988 -12.8125 47.5625 C-12.16607544 46.65745728 -12.16607544 46.65745728 -11.5065918 45.73413086 C-6.0950485 37.22848213 -6.17523836 29.78666795 -6.625 20.125 C-6.70824106 17.95759583 -6.78219303 15.79081756 -6.83854675 13.62254333 C-6.89159552 11.67422647 -6.97387603 9.72676962 -7.05786133 7.77954102 C-6.64991134 2.43072814 -5.30383195 0.78253258 0 0 Z " fill="#F89A87" transform="translate(418.8125,230.4375)"/>
<path d="M0 0 C3.44401787 1.62084653 5.60671518 3.42536245 8.25 6.1875 C11.74207599 9.77162412 15.32677092 13.1014702 19.17578125 16.296875 C21.37604858 18.35108604 23.16527917 20.61850807 25 23 C24.31035156 23.73863281 23.62070313 24.47726562 22.91015625 25.23828125 C18.33074295 30.17210275 13.83356686 35.11625072 9.625 40.375 C5.40219512 45.64389134 0.84247969 50.54231318 -3.83544922 55.40576172 C-6.93915348 58.21718812 -6.93915348 58.21718812 -8 62 C2.89 65.63 13.78 69.26 25 73 C20.49865551 80.87735285 20.49865551 80.87735285 17.96875 83.91015625 C17.41131104 84.58320801 16.85387207 85.25625977 16.27954102 85.94970703 C15.69229248 86.64692871 15.10504395 87.34415039 14.5 88.0625 C13.88632568 88.79839355 13.27265137 89.53428711 12.64038086 90.29248047 C10.766756 92.53387574 8.88452303 94.76776429 7 97 C6.43555176 97.6717627 5.87110352 98.34352539 5.28955078 99.03564453 C0.18506571 105.10381723 -4.90647813 111.12604372 -10.62890625 116.62890625 C-12.17478606 118.11731243 -12.17478606 118.11731243 -13.9375 120.5 C-16.28687779 123.34773065 -18.87276933 125.60084716 -21.6796875 127.98828125 C-24.24977927 130.21655947 -26.70939801 132.54500614 -29.1875 134.875 C-37.20383936 142.17976416 -46.8609423 149.96293813 -57 154 C-57.66 153.67 -58.32 153.34 -59 153 C-58.55011719 152.1234375 -58.10023438 151.246875 -57.63671875 150.34375 C-33.2877806 102.51801661 -14.50464249 51.6342127 0 0 Z " fill="#1E345F" transform="translate(220,274)"/>
<path d="M0 0 C2 1 2 1 2.81860352 3.08764648 C3.08600342 4.00618408 3.35340332 4.92472168 3.62890625 5.87109375 C3.93642822 6.90588867 4.2439502 7.94068359 4.56079102 9.00683594 C4.89135498 10.13895508 5.22191895 11.27107422 5.5625 12.4375 C18.93698631 56.86304989 36.7573735 99.82170864 56.68383789 141.68554688 C57.2483667 142.87728516 57.81289551 144.06902344 58.39453125 145.296875 C59.15020386 146.88000488 59.15020386 146.88000488 59.92114258 148.49511719 C61 151 61 151 61 153 C38.98164102 146.52783835 17.56231155 122.13735444 3 105 C1.80117187 103.61748047 1.80117187 103.61748047 0.578125 102.20703125 C-4.8705893 95.89045111 -10.09381342 89.41892066 -15.1875 82.8125 C-15.7645166 82.06943604 -16.3415332 81.32637207 -16.93603516 80.56079102 C-17.46632324 79.86655029 -17.99661133 79.17230957 -18.54296875 78.45703125 C-19.2548938 77.5285437 -19.2548938 77.5285437 -19.98120117 76.58129883 C-21 75 -21 75 -21 73 C-10.44 69.37 0.12 65.74 11 62 C11 58.49711704 7.90863897 56.15972744 5.6875 53.625 C5.14569092 52.99940186 4.60388184 52.37380371 4.0456543 51.72924805 C0.53407788 47.69463829 -3.05148557 43.73491728 -6.6875 39.8125 C-11.70681697 34.39192949 -16.39502806 28.77611296 -21 23 C-17.56299163 17.2162171 -13.03908194 12.81083474 -8.25 8.125 C-7.45722656 7.34125 -6.66445312 6.5575 -5.84765625 5.75 C-3.90291853 3.82869286 -1.95365247 1.91223453 0 0 Z " fill="#1E335F" transform="translate(100,274)"/>
<path d="M0 0 C0.89025879 0.49749756 1.78051758 0.99499512 2.69775391 1.50756836 C3.67099609 2.04575195 4.64423828 2.58393555 5.64697266 3.13842773 C6.64599609 3.70239258 7.64501953 4.26635742 8.67431641 4.84741211 C9.69654297 5.41524414 10.71876953 5.98307617 11.77197266 6.56811523 C14.2855998 7.96587986 16.79438668 9.37163851 19.29931641 10.78491211 C18.53619141 11.71303711 17.77306641 12.64116211 16.98681641 13.59741211 C16.18667114 14.58704956 16.18667114 14.58704956 15.37036133 15.59667969 C13.29931641 17.78491211 13.29931641 17.78491211 10.40991211 19.79150391 C6.06992051 23.07878869 2.78940037 25.79219958 1.87591553 31.37042236 C1.55969073 39.15968457 2.57635764 46.87525479 3.48681641 54.59741211 C3.71819256 56.91393009 3.94414713 59.23099629 4.16455078 61.54858398 C5.0234843 70.36073992 5.94189172 79.16070717 7.11132812 87.9375 C8.48565956 98.88551944 8.83148185 106.73412989 3.04931641 116.59741211 C2.53240234 117.58676758 2.01548828 118.57612305 1.48291016 119.59545898 C-2.2253473 126.54724396 -2.2253473 126.54724396 -4.70068359 127.78491211 C-20.72457556 102.77555749 -20.95164877 82.10021872 -17.00694275 53.19314575 C-16.57361647 49.78573438 -16.25237539 46.36997442 -15.93885803 42.94970703 C-15.70068359 40.78491211 -15.70068359 40.78491211 -15.04052734 37.52709961 C-14.38991164 32.89067313 -14.41052826 29.53992341 -17.27539062 25.64282227 C-21.71583701 20.63847511 -26.63130676 16.14225048 -31.70068359 11.78491211 C-28.00169805 7.42174407 -23.29963489 5.10724149 -18.32568359 2.47241211 C-17.48779297 2.00512695 -16.64990234 1.5378418 -15.78662109 1.05639648 C-14.55685547 0.401875 -14.55685547 0.401875 -13.30224609 -0.26586914 C-12.56312988 -0.66459229 -11.82401367 -1.06331543 -11.0625 -1.47412109 C-6.98969272 -2.75187281 -3.80468716 -1.71179967 0 0 Z " fill="#FDCF69" transform="translate(165.70068359375,299.215087890625)"/>
<path d="M0 0 C3.4160446 1.27108636 6.35706208 2.73394747 9.390625 4.75 C10.18210938 5.2759375 10.97359375 5.801875 11.7890625 6.34375 C13.00722656 7.16359375 13.00722656 7.16359375 14.25 8 C15.07757813 8.5465625 15.90515625 9.093125 16.7578125 9.65625 C17.54414063 10.1821875 18.33046875 10.708125 19.140625 11.25 C19.85766602 11.72953125 20.57470703 12.2090625 21.31347656 12.703125 C23 14 23 14 24 16 C16.41 19.96 8.82 23.92 1 28 C0.66324775 30.9711518 0.66324775 30.9711518 2.37695312 32.51123047 C3.00537109 33.04119629 3.63378906 33.57116211 4.28125 34.1171875 C5.29638672 35.02984375 5.29638672 35.02984375 6.33203125 35.9609375 C7.75813201 37.22001745 9.20328118 38.45789971 10.66796875 39.671875 C13.74513476 42.49700646 15.82651191 44.58538207 16.34872437 48.8434906 C16.31791779 49.88699173 16.28711121 50.93049286 16.25537109 52.00561523 C16.22542053 53.1572113 16.19546997 54.30880737 16.16461182 55.49530029 C15.91593139 60.78987896 15.60714927 66.07096209 15.1953125 71.35546875 C15.11127167 72.46432938 15.02723083 73.57319 14.94064331 74.71565247 C14.76332823 77.03076954 14.58338486 79.34568674 14.40087891 81.66040039 C14.12275141 85.2162481 13.85991143 88.77302864 13.59765625 92.33007812 C13.4227992 94.58861341 13.24705084 96.84707991 13.0703125 99.10546875 C12.99313995 100.16992722 12.91596741 101.23438568 12.8364563 102.33110046 C12.75652435 103.31004776 12.67659241 104.28899506 12.59423828 105.29760742 C12.49431076 106.59114388 12.49431076 106.59114388 12.3923645 107.91081238 C12 110 12 110 10 112 C2.57111611 95.39749818 -4.4257786 78.67155349 -10.9375 61.6875 C-11.24761017 60.88045624 -11.55772034 60.07341248 -11.87722778 59.24191284 C-13.65691052 54.60179587 -15.41149033 49.95312764 -17.14178467 45.29437256 C-18.02909806 42.92220859 -18.93675733 40.55836002 -19.84423828 38.19384766 C-20.41926038 36.65693664 -20.99335318 35.11967753 -21.56640625 33.58203125 C-21.84218002 32.87672775 -22.1179538 32.17142426 -22.40208435 31.44474792 C-24.159673 26.64138842 -24.159673 26.64138842 -23.46508789 23.85131836 C-21.46048718 21.31825934 -19.29048181 19.06875213 -16.9921875 16.796875 C-16.50670441 16.3142218 -16.02122131 15.8315686 -15.52102661 15.33428955 C-13.97700134 13.80141438 -12.42615176 12.27565996 -10.875 10.75 C-9.82375991 9.70879639 -8.77297343 8.66713459 -7.72265625 7.625 C-5.15366996 5.07800536 -2.57851839 2.53734823 0 0 Z " fill="#E6EDF9" transform="translate(135,281)"/>
<path d="M0 0 C1.96453125 0.00845947 1.96453125 0.00845947 3.96875 0.01708984 C30.00895518 0.33877046 56.38041768 6.28209785 79.625 18.3125 C78.01885085 22.90149758 75.60306592 26.74392461 73 30.8125 C72.103753 32.228905 71.20792623 33.64557598 70.3125 35.0625 C69.63960937 36.12404297 69.63960937 36.12404297 68.953125 37.20703125 C66.9432697 40.39324304 64.969545 43.60126569 63 46.8125 C62.34773438 47.8746875 61.69546875 48.936875 61.0234375 50.03125 C60.33121094 51.16046875 60.33121094 51.16046875 59.625 52.3125 C58.01011278 49.89016917 56.74480743 47.58338226 55.4375 45 C50.90719968 36.93449423 45.47723327 33.75592386 36.734375 31.015625 C33.7334192 30.3370169 31.18725653 30.2322991 28.125 30.25 C22.27457166 29.8989743 19.32431774 26.82271058 15.38671875 22.88769531 C6.35112831 13.8925455 -4.84848148 7.59280457 -16.375 2.3125 C-11.42870058 -0.98503294 -5.81383648 -0.02569246 0 0 Z " fill="#E6EDFA" transform="translate(195.375,41.6875)"/>
<path d="M0 0 C4.08544724 1.32387297 7.71674748 3.46580039 11.48095703 5.50634766 C14.43240992 6.78975869 16.24855242 7.05756184 19.41845703 6.78369141 C18.84877607 11.67021907 17.82244041 15.97266051 16.15283203 20.59619141 C15.92316742 21.23490173 15.69350281 21.87361206 15.45687866 22.53167725 C14.70239165 24.61881811 13.93640775 26.7014698 13.16845703 28.78369141 C12.77445709 29.86100525 12.77445709 29.86100525 12.37249756 30.96008301 C8.35534362 41.92696471 4.0734402 52.76889986 -0.45654297 63.53369141 C-0.85274841 64.47583496 -0.85274841 64.47583496 -1.25695801 65.43701172 C-4.85774197 73.96970709 -8.65394898 82.39713335 -12.58154297 90.78369141 C-12.91154297 90.78369141 -13.24154297 90.78369141 -13.58154297 90.78369141 C-14.21719954 83.20253722 -14.85191438 75.62130466 -15.48548794 68.03997612 C-15.77983636 64.51814963 -16.0744867 60.99634898 -16.36987305 57.47460938 C-16.71090885 53.40844482 -17.05054866 49.34216463 -17.39013672 45.27587891 C-17.54644814 43.41562576 -17.54644814 43.41562576 -17.70591736 41.51779175 C-17.90516567 39.12711289 -18.09824653 36.73591053 -18.28460693 34.3441925 C-18.49045225 31.87594218 -18.73103758 29.41043778 -18.99908447 26.94816589 C-19.1219281 25.7106105 -19.24477173 24.47305511 -19.37133789 23.19799805 C-19.49337082 22.08880508 -19.61540375 20.97961212 -19.74113464 19.83680725 C-19.49335189 15.09652577 -17.17541439 12.67221859 -13.87060547 9.46142578 C-13.07396484 8.76339844 -12.27732422 8.06537109 -11.45654297 7.34619141 C-10.68310547 6.59015625 -9.90966797 5.83412109 -9.11279297 5.05517578 C-3.40701117 -0.28547493 -3.40701117 -0.28547493 0 0 Z " fill="#E7EEFA" transform="translate(186.58154296875,311.21630859375)"/>
<path d="M0 0 C0.89025879 0.49749756 1.78051758 0.99499512 2.69775391 1.50756836 C3.67099609 2.04575195 4.64423828 2.58393555 5.64697266 3.13842773 C6.64599609 3.70239258 7.64501953 4.26635742 8.67431641 4.84741211 C9.69654297 5.41524414 10.71876953 5.98307617 11.77197266 6.56811523 C14.2855998 7.96587986 16.79438668 9.37163851 19.29931641 10.78491211 C14.81800699 16.128821 10.13339288 21.19475613 5.23681641 26.15991211 C4.54265625 26.88307617 3.84849609 27.60624023 3.13330078 28.35131836 C2.45460937 29.03838867 1.77591797 29.72545898 1.07666016 30.43334961 C0.47072021 31.05387207 -0.13521973 31.67439453 -0.75952148 32.3137207 C-3.14731505 34.12341056 -4.70809254 34.65487569 -7.70068359 34.78491211 C-9.64013672 33.64794922 -9.64013672 33.64794922 -11.48193359 31.87475586 C-12.16771484 31.22619629 -12.85349609 30.57763672 -13.56005859 29.90942383 C-14.26646484 29.20833496 -14.97287109 28.50724609 -15.70068359 27.78491211 C-16.40708984 27.09800293 -17.11349609 26.41109375 -17.84130859 25.70336914 C-19.98025987 23.60296192 -22.0936518 21.47980633 -24.20068359 19.34741211 C-24.92771484 18.61586914 -25.65474609 17.88432617 -26.40380859 17.13061523 C-28.17177858 15.35101387 -29.93734737 13.56910293 -31.70068359 11.78491211 C-28.00169805 7.42174407 -23.29963489 5.10724149 -18.32568359 2.47241211 C-17.48779297 2.00512695 -16.64990234 1.5378418 -15.78662109 1.05639648 C-14.55685547 0.401875 -14.55685547 0.401875 -13.30224609 -0.26586914 C-12.56312988 -0.66459229 -11.82401367 -1.06331543 -11.0625 -1.47412109 C-6.98969272 -2.75187281 -3.80468716 -1.71179967 0 0 Z " fill="#F9B357" transform="translate(165.70068359375,299.215087890625)"/>
<path d="M0 0 C3.4160446 1.27108636 6.35706208 2.73394747 9.390625 4.75 C10.18210938 5.2759375 10.97359375 5.801875 11.7890625 6.34375 C13.00722656 7.16359375 13.00722656 7.16359375 14.25 8 C15.07757813 8.5465625 15.90515625 9.093125 16.7578125 9.65625 C17.54414063 10.1821875 18.33046875 10.708125 19.140625 11.25 C19.85766602 11.72953125 20.57470703 12.2090625 21.31347656 12.703125 C23 14 23 14 24 16 C23.3922876 16.31638428 22.7845752 16.63276855 22.15844727 16.95874023 C19.29282248 18.45106758 16.42766024 19.94428097 13.5625 21.4375 C12.52311279 21.97866455 11.48372559 22.5198291 10.4128418 23.07739258 C5.53922187 25.61808376 0.67099997 28.16672992 -4.171875 30.765625 C-4.94088135 31.17756104 -5.7098877 31.58949707 -6.50219727 32.01391602 C-7.92659072 32.77886511 -9.34905939 33.54741252 -10.76928711 34.32006836 C-13.82921897 35.96170922 -16.61429573 37.25023263 -20 38 C-20.7266797 36.09021367 -21.43075588 34.17181485 -22.125 32.25 C-22.51945312 31.18265625 -22.91390625 30.1153125 -23.3203125 29.015625 C-24 26 -24 26 -23.35546875 24.13671875 C-21.55756684 21.30256213 -19.3792433 19.15649338 -16.9921875 16.796875 C-16.50670441 16.3142218 -16.02122131 15.8315686 -15.52102661 15.33428955 C-13.97700134 13.80141438 -12.42615176 12.27565996 -10.875 10.75 C-9.82375991 9.70879639 -8.77297343 8.66713459 -7.72265625 7.625 C-5.15366996 5.07800536 -2.57851839 2.53734823 0 0 Z " fill="#B4C6E8" transform="translate(135,281)"/>
<path d="M0 0 C15.51 0 31.02 0 47 0 C45.19618975 9.01905124 41.2177414 13.55547534 34 19 C29.00147525 21.55243817 23.51037298 21.78488426 18 21 C10.73810538 18.54423593 5.63371536 15.02118903 2.0390625 8.16796875 C0.72686782 5.30882897 0 3.16674192 0 0 Z " fill="#FEFBFA" transform="translate(136,202)"/>
<path d="M0 0 C9.67326402 4.25707915 15.36501913 15.9221788 19.36328125 25.14453125 C21.36391401 30.39017659 21.36391401 30.39017659 22 33 C21.505 33.99 21.505 33.99 21 35 C20.56429687 34.52949219 20.12859375 34.05898437 19.6796875 33.57421875 C13.96248153 27.59713979 8.77410458 24.37002459 0.37890625 23.83203125 C-7.56022026 23.77697489 -15.17398018 24.70338133 -23 26 C-18.81372176 21.02172318 -14.46207776 16.21316912 -10.05419922 11.43164062 C-6.61351805 7.69109988 -3.27065365 3.88942596 0 0 Z " fill="#AEC1E6" transform="translate(476,217)"/>
<path d="M0 0 C3 0.25 3 0.25 5 2.25 C5.24050903 4.38870239 5.24050903 4.38870239 5.22705078 7.06689453 C5.22682419 8.56822433 5.22682419 8.56822433 5.22659302 10.09988403 C5.21627045 11.18325043 5.20594788 12.26661682 5.1953125 13.3828125 C5.1924826 14.48978485 5.18965271 15.5967572 5.18673706 16.73727417 C5.17551519 20.28329137 5.15040691 23.82905875 5.125 27.375 C5.1149728 29.77473594 5.1058465 32.17447583 5.09765625 34.57421875 C5.07556928 40.46624253 5.0410257 46.35807887 5 52.25 C1.7 52.25 -1.6 52.25 -5 52.25 C-5.04932714 45.16586329 -5.08568489 38.08182587 -5.10986328 30.99755859 C-5.11993954 28.58608256 -5.13360081 26.17461878 -5.15087891 23.76318359 C-5.1750559 20.30302915 -5.18646669 16.8430358 -5.1953125 13.3828125 C-5.20563507 12.29944611 -5.21595764 11.21607971 -5.22659302 10.09988403 C-5.22674408 9.0989975 -5.22689514 8.09811096 -5.22705078 7.06689453 C-5.231492 6.18309113 -5.23593323 5.29928772 -5.24050903 4.38870239 C-4.83243883 0.75997914 -3.486995 0.29058292 0 0 Z " fill="#122A59" transform="translate(67,423.75)"/>
<path d="M0 0 C1.4540625 0.0309375 1.4540625 0.0309375 2.9375 0.0625 C4.65038961 5.00907616 6.35928426 9.95700704 8.06445312 14.90625 C8.64538078 16.59055031 9.22740808 18.27447176 9.81054688 19.95800781 C10.64741158 22.37466812 11.48034253 24.7926529 12.3125 27.2109375 C12.57498535 27.9661972 12.8374707 28.72145691 13.10791016 29.49960327 C14.9375 34.83475659 14.9375 34.83475659 14.9375 37.0625 C13.2875 37.0625 11.6375 37.0625 9.9375 37.0625 C7.9575 31.6175 7.9575 31.6175 5.9375 26.0625 C1.6475 25.7325 -2.6425 25.4025 -7.0625 25.0625 C-8.0525 28.6925 -9.0425 32.3225 -10.0625 36.0625 C-12.5375 36.5575 -12.5375 36.5575 -15.0625 37.0625 C-14.48463661 32.13731384 -13.43945061 27.75101336 -11.8125 23.0703125 C-11.59432617 22.4389035 -11.37615234 21.80749451 -11.15136719 21.1569519 C-10.69375226 19.83666492 -10.23310489 18.51742534 -9.76953125 17.19921875 C-9.05786738 15.17431878 -8.3563508 13.14611092 -7.65625 11.1171875 C-3.81823667 0.0779232 -3.81823667 0.0779232 0 0 Z " fill="#FEFAF5" transform="translate(371.0625,113.9375)"/>
<path d="M0 0 C2.5 0.25 2.5 0.25 4.5 2.25 C4.74050903 4.31277466 4.74050903 4.31277466 4.72705078 6.88330078 C4.72682419 8.32456833 4.72682419 8.32456833 4.72659302 9.79495239 C4.71627045 10.83457123 4.70594788 11.87419006 4.6953125 12.9453125 C4.6924826 14.00789276 4.68965271 15.07047302 4.68673706 16.16525269 C4.67551639 19.56861499 4.65040837 22.97171686 4.625 26.375 C4.61497264 28.67838162 4.60584637 30.98176736 4.59765625 33.28515625 C4.57557093 38.94019345 4.54207489 44.59507813 4.5 50.25 C-2.20154436 47.12261263 -2.20154436 47.12261263 -4.5 44.25 C-4.8742218 42.30821228 -4.8742218 42.30821228 -4.87231445 40.08569336 C-4.87854324 39.25150375 -4.88477203 38.41731415 -4.89118958 37.55784607 C-4.88197983 36.6609053 -4.87277008 35.76396454 -4.86328125 34.83984375 C-4.86377975 33.91659805 -4.86427826 32.99335236 -4.86479187 32.04212952 C-4.86245179 30.0911341 -4.85272717 28.14013564 -4.83618164 26.18920898 C-4.81256333 23.19552772 -4.81562432 20.20273527 -4.82226562 17.20898438 C-4.81668981 15.31509883 -4.80958054 13.42121706 -4.80078125 11.52734375 C-4.80169266 10.62837875 -4.80260406 9.72941376 -4.80354309 8.8032074 C-4.79401108 7.97216995 -4.78447906 7.14113251 -4.7746582 6.28491211 C-4.77005081 5.55227646 -4.76544342 4.81964081 -4.76069641 4.06480408 C-4.31294457 0.94783802 -2.99338815 0.29933881 0 0 Z " fill="#182E5A" transform="translate(293.5,374.75)"/>
<path d="M0 0 C1.65 0 3.3 0 5 0 C7.64 4.62 10.28 9.24 13 14 C15.64 9.38 18.28 4.76 21 0 C22.98 0 24.96 0 27 0 C26.08702392 1.71030852 25.16942376 3.41814895 24.25 5.125 C23.70859375 6.13046875 23.1671875 7.1359375 22.609375 8.171875 C21.34304132 10.39717981 20.05251238 12.35460718 18.5 14.375 C18.005 15.24125 17.51 16.1075 17 17 C18.29370157 21.41105476 20.81013275 25.3073639 23.125 29.25 C27 35.87370242 27 35.87370242 27 37 C25.02 37 23.04 37 21 37 C18.36 32.38 15.72 27.76 13 23 C10.36 27.62 7.72 32.24 5 37 C3.02 37 1.04 37 -1 37 C4.78199455 26.16839687 4.78199455 26.16839687 7.4375 22.5625 C9.19248745 20.25341979 9.19248745 20.25341979 8.8515625 18.28515625 C7.60146162 14.93052773 5.7659276 11.93816886 3.9375 8.875 C0 2.26538462 0 2.26538462 0 0 Z " fill="#FEFAF5" transform="translate(392,114)"/>
<path d="M0 0 C8.91 0 17.82 0 27 0 C27 1.32 27 2.64 27 4 C23.37 4 19.74 4 16 4 C16 14.89 16 25.78 16 37 C14.35 37 12.7 37 11 37 C11 26.11 11 15.22 11 4 C7.37 4 3.74 4 0 4 C0 2.68 0 1.36 0 0 Z " fill="#FEFBF7" transform="translate(328,114)"/>
<path d="M0 0 C4.03978453 0.08977299 5.58297917 0.57228632 8.4375 3.5 C10.4615186 8.03380166 10.49723852 11.28326595 9 16 C6.75 19.125 6.75 19.125 4 21 C0.46722157 21.17233066 -0.68626596 20.27981685 -3.3125 17.9375 C-5.44023389 14.23366694 -5.83084279 11.13001465 -5 7 C-3.50251293 4.34316811 -2.15347249 2.15347249 0 0 Z " fill="#1F2F58" transform="translate(188,153)"/>
<path d="M0 0 C3.29437547 1.28910344 4.09221334 2.13136112 5.875 5.125 C6.83602412 10.49872654 6.76169422 14.80762573 3.6875 19.375 C0.875 21.125 0.875 21.125 -1.75 21.125 C-4.23700654 20.07783935 -5.4885682 19.25236134 -7.125 17.125 C-8.58003017 12.75990948 -9.24776701 8.46732429 -7.21875 4.234375 C-5.02651135 1.22707327 -3.74640786 0.14985631 0 0 Z " fill="#1D2E58" transform="translate(129.125,152.875)"/>
<path d="M0 0 C2.48659621 2.48659621 3.0343111 4.60483946 4.125 7.9375 C4.47820312 8.99839844 4.83140625 10.05929688 5.1953125 11.15234375 C6 14 6 14 6 17 C2.37 17 -1.26 17 -5 17 C-1.85714286 5.28571429 -1.85714286 5.28571429 0 0 Z " fill="#FAB966" transform="translate(370,119)"/>
<path d="M0 0 C0.66 0 1.32 0 2 0 C2.33 2.97 2.66 5.94 3 9 C-3.6 9 -10.2 9 -17 9 C-14.67551611 7.83775805 -12.34948576 6.67857947 -10.01953125 5.52734375 C-8.96121094 5.00269531 -7.90289062 4.47804688 -6.8125 3.9375 C-5.74644531 3.41027344 -4.68039062 2.88304687 -3.58203125 2.33984375 C-1.13361239 1.23426213 -1.13361239 1.23426213 0 0 Z " fill="#CDD9F0" transform="translate(278,468)"/>
</svg>
