<?xml version="1.0" encoding="UTF-8"?>
<svg version="1.1" xmlns="http://www.w3.org/2000/svg" width="512" height="512">
<path d="M0 0 C99 0 198 0 300 0 C351 102 351 102 350 108 C346.92717682 115.41867311 342.36576648 121.2351691 336.85546875 127.00390625 C334.94939789 128.86670194 334.94939789 128.86670194 334 131 C334.99257813 131.08894531 335.98515625 131.17789063 337.0078125 131.26953125 C341.40967598 131.90358549 344.96405257 133.64139701 348.875 135.6875 C349.57971436 136.05053223 350.28442871 136.41356445 351.01049805 136.78759766 C373.11350862 148.33710209 386.83081056 165.44959913 395.31640625 188.58984375 C400.53203931 205.90865318 399.98327143 225.96918492 394 243 C393.62617188 244.07121094 393.25234375 245.14242187 392.8671875 246.24609375 C386.06901472 263.91684089 372.90186894 279.42539295 356.4375 288.75 C352.69883375 291.10521613 351.26057036 292.0989041 350.01953125 296.390625 C349.7759319 299.652738 349.74170954 302.74156652 350 306 C350.88171875 306.26683594 351.7634375 306.53367187 352.671875 306.80859375 C362.16878159 310.20830796 369.89973955 317.02173715 377 324 C377.62648438 324.61359375 378.25296875 325.2271875 378.8984375 325.859375 C395.94425126 343.90788368 398.79638675 366.75806635 398.17041016 390.52050781 C396.98751999 414.67315921 385.7147486 439.53246594 369.0078125 456.88671875 C366.93371603 459.00134689 366.93371603 459.00134689 365.04296875 461.5078125 C349.93828037 479.93379947 324.7013486 490.40784148 302 495 C301.1803863 495.17622485 300.36077261 495.3524497 299.51632214 495.5340147 C294.44857454 496.20559591 289.42766351 496.1480225 284.32087708 496.14717102 C282.54469994 496.15268605 282.54469994 496.15268605 280.73264045 496.1583125 C277.45361236 496.16741144 274.17461369 496.17204292 270.89557517 496.17470181 C267.355399 496.17861686 263.81523716 496.18819459 260.27507019 496.19691467 C251.72716518 496.21664933 243.17925904 496.22674328 234.63133696 496.23564246 C230.59869802 496.24003187 226.56606038 496.24539713 222.53342247 496.25063133 C209.11409306 496.26764361 195.69476445 496.2821342 182.27542591 496.28938007 C178.79535229 496.29128976 175.31527867 496.29321011 171.83520508 496.29516602 C170.53788117 496.29589163 170.53788117 496.29589163 169.2143487 496.2966319 C155.227495 496.30491875 141.24072719 496.33023288 127.25391094 496.36274669 C112.86969969 496.39590945 98.48553194 496.41383729 84.1012823 496.41702431 C76.03503034 496.41918133 67.96890349 496.42781028 59.90268898 496.45348549 C53.02770705 496.47531914 46.15288062 496.48318144 39.27786795 496.47351871 C35.77771525 496.46900976 32.27788248 496.47065774 28.77777481 496.49028015 C10.04403062 496.57806848 -7.69506123 495.76972346 -25.1875 488.375 C-26.00718262 488.03654053 -26.82686523 487.69808105 -27.67138672 487.34936523 C-39.29796792 482.36734928 -49.75784281 475.79617974 -58.88671875 467.0078125 C-61.00134689 464.93371603 -61.00134689 464.93371603 -63.5078125 463.04296875 C-83.41573575 446.72346427 -94.38961108 418.7544663 -98 394 C-99.41649677 369.88438675 -96.96997478 347.08657894 -80.8203125 328.00390625 C-80.21960938 327.34261719 -79.61890625 326.68132812 -79 326 C-78.35804687 325.26652344 -77.71609375 324.53304688 -77.0546875 323.77734375 C-72.74260089 319.13906609 -68.10187911 315.49179355 -62.8125 312.0625 C-62.23040771 311.68480469 -61.64831543 311.30710937 -61.04858398 310.91796875 C-57.48313907 308.69482688 -54.03152131 307.16846824 -50 306 C-49.25848597 301.26042582 -49.37467583 297.54020193 -51 293 C-54.56864987 289.24936958 -59.14745709 286.71539032 -63.48828125 283.95703125 C-80.66124179 273.03728785 -91.72885027 254.09571102 -96.875 234.75 C-101.60643877 209.64787575 -97.35906606 185.16415633 -83 164 C-72.27540005 149.52483106 -56.82456083 135.70068264 -38.76171875 131.4765625 C-36.8125 131.1875 -36.8125 131.1875 -34 131 C-34.42410156 130.55011719 -34.84820312 130.10023438 -35.28515625 129.63671875 C-40.26794941 124.17207307 -44.21857285 118.34461101 -48 112 C-48.66 110.906875 -49.32 109.81375 -50 108.6875 C-51 106 -51 106 -50 100 C-33.5 67 -17 34 0 0 Z M6 328 C5.37811786 333.64087926 5.37811786 333.64087926 7.58203125 335.9921875 C8.31808594 336.61351562 9.05414063 337.23484375 9.8125 337.875 C34.17366647 360.74466649 44.48426288 395.67791979 45.6875 428.0625 C45.81147212 432.04134968 45.91692269 436.02009215 46 440 C55.28721549 441.53238567 64.57081043 442.64761404 73.9375 443.5625 C76.46762068 443.81205667 78.997576 444.06329696 81.52734375 444.31640625 C82.62812256 444.42412354 83.72890137 444.53184082 84.86303711 444.64282227 C87.93248643 444.99231284 90.95807945 445.46406573 94 446 C94.0093457 445.16339844 94.01869141 444.32679688 94.02832031 443.46484375 C94.0726418 440.32583985 94.13439195 437.18777132 94.20751953 434.04931641 C94.24923272 432.0370146 94.27128531 430.02433605 94.29296875 428.01171875 C94.5054922 419.55328559 95.02417079 413.51640248 100.78125 406.9765625 C101.63203125 406.30753906 101.63203125 406.30753906 102.5 405.625 C103.35078125 404.93277344 103.35078125 404.93277344 104.21875 404.2265625 C106 403 106 403 108.1875 402.3125 C108.785625 401.879375 109.38375 401.44625 110 401 C110.36333282 398.35372595 110.50298495 396.02265155 110.5 393.375 C110.73871444 386.05604768 111.43575217 380.75896921 116.64453125 375.265625 C123.10600813 369.3531625 128.74533433 368.68392226 137.26953125 368.6640625 C138.26450119 368.6574057 139.25947113 368.6507489 140.28459167 368.64389038 C142.38673051 368.63378102 144.48890133 368.62907283 146.59106445 368.62939453 C149.79107172 368.62502923 152.98969038 368.58871239 156.18945312 368.55078125 C158.23697448 368.54491101 160.28450235 368.540943 162.33203125 368.5390625 C163.28124954 368.52469147 164.23046783 368.51032043 165.20845032 368.49551392 C172.27851563 368.54362647 177.61338427 370.07757291 183.0234375 374.74609375 C183.46945312 375.30425781 183.91546875 375.86242187 184.375 376.4375 C185.06722656 377.27087891 185.06722656 377.27087891 185.7734375 378.12109375 C188.55575627 382.38318078 189.13356351 385.73538225 189.07348633 390.82495117 C188.91561276 397.49686498 188.91561276 397.49686498 191.921875 403.203125 C194.22562525 404.63355816 196.56492995 405.81236934 199 407 C203.90555273 412.15711954 205.22812967 416.79757245 205.4140625 423.83203125 C205.45273437 425.12431641 205.49140625 426.41660156 205.53125 427.74804688 C205.56270014 429.10285995 205.59394761 430.45767775 205.625 431.8125 C205.6632175 433.18687272 205.7022714 434.56122244 205.7421875 435.93554688 C205.83635404 439.29022989 205.921982 442.64490893 206 446 C210.90771504 445.4713703 215.81490033 444.93812449 220.72167969 444.40087891 C222.38560931 444.21931841 224.04966924 444.0389476 225.71386719 443.85986328 C235.1959146 442.83863194 244.61498012 441.73200938 254 440 C254.01458252 439.30140869 254.02916504 438.60281738 254.04418945 437.88305664 C254.88004915 401.91746129 262.53552184 368.74242376 287 341 C288.86676308 339.25521966 290.73736201 337.53038331 292.6730957 335.86230469 C294.58027833 333.56669322 294.58027833 333.56669322 294 328 C198.96 328 103.92 328 6 328 Z " fill="#010100" transform="translate(106,8)"/>
<path d="M0 0 C0.66 0 1.32 0 2 0 C3.02649277 1.12525155 3.99587696 2.30282645 4.9375 3.5 C13.87338272 13.9529477 27.27932352 21.87339876 41.13354492 23.20507812 C58.56881262 23.97639343 74.7969826 20.55624357 88.20117188 8.67773438 C92.65253519 4.77655792 92.65253519 4.77655792 96 0 C96.66 0 97.32 0 98 0 C99.02649277 1.12525155 99.99587696 2.30282645 100.9375 3.5 C109.87338272 13.9529477 123.27932352 21.87339876 137.13354492 23.20507812 C154.56881262 23.97639343 170.7969826 20.55624357 184.20117188 8.67773438 C188.65253519 4.77655792 188.65253519 4.77655792 192 0 C192.66 0 193.32 0 194 0 C195.515625 1.57421875 195.515625 1.57421875 197.25 3.6875 C200.25954469 7.23964603 203.33524535 10.13970369 207 13 C206.278125 13.680625 205.55625 14.36125 204.8125 15.0625 C198.00520123 21.92765117 193.94178886 29.02684731 193.5625 38.8125 C193.80496236 47.54114482 196.70226213 56.70226213 203 63 C205.89316819 65.19179408 208.88154648 67.14523353 212 69 C211.67386719 69.64324219 211.34773438 70.28648437 211.01171875 70.94921875 C209.90205962 74.29533373 209.83548433 76.9451619 209.82543945 80.43408203 C209.76086109 92.30431538 209.76086109 92.30431538 205.8125 96.625 C204.55172159 97.76125709 203.28086339 98.88643305 202 100 C200.85980742 101.38783621 199.75422444 102.80492995 198.6875 104.25 C198.21699219 104.87390625 197.74648438 105.4978125 197.26171875 106.140625 C193.31098594 111.96275756 193.15513375 117.32395809 194.39453125 124.18359375 C196.17433658 130.07417527 199.91965711 133.69336292 205 137 C208.92221581 138.90109849 212.90246573 140.51805844 217 142 C217.02578125 142.97839844 217.0515625 143.95679688 217.078125 144.96484375 C217.51343193 155.02636986 218.22438474 162.8210597 225.9375 169.9375 C230.94787171 173.94764963 234.58019245 174.93003208 241 176 C241 181.28 241 186.56 241 192 C145.96 192 50.92 192 -47 192 C-47 186.72 -47 181.44 -47 176 C-44.710625 175.38125 -44.710625 175.38125 -42.375 174.75 C-35.67802097 172.72577188 -30.96354677 169.87698314 -27 164 C-24.36164832 158.72329663 -23.50023642 154.42524035 -23.3125 148.5625 C-23.27833984 147.83095703 -23.24417969 147.09941406 -23.20898438 146.34570312 C-23.12748247 144.56430438 -23.06204477 142.78218251 -23 141 C-21.60587891 140.5978125 -21.60587891 140.5978125 -20.18359375 140.1875 C-12.30068086 137.68864127 -6.47427031 135.33080771 -2 128 C0.50627516 122.98744969 0.90828895 117.49839203 0 112 C-2.72095165 105.37768386 -7.17317206 100.41808007 -12.36328125 95.59375 C-16.3415572 91.71991566 -15.34711423 85.94977743 -15.51757812 80.74023438 C-15.70502356 76.42191587 -16.02573244 72.94054212 -18 69 C-17.34773438 68.61070312 -16.69546875 68.22140625 -16.0234375 67.8203125 C-8.06205862 62.72409062 -4.15942354 57.30040323 -0.625 48.625 C1.14657651 38.34985626 0.34457559 30.46581746 -5.49609375 21.7734375 C-7.80130938 18.61167043 -10.18593786 15.72220848 -13 13 C-12.14535156 12.22914063 -11.29070312 11.45828125 -10.41015625 10.6640625 C-9.29412924 9.65119765 -8.17825156 8.63816827 -7.0625 7.625 C-6.49853516 7.11710938 -5.93457031 6.60921875 -5.35351562 6.0859375 C-2.26615288 3.37315113 -2.26615288 3.37315113 0 0 Z " fill="#E4E7EB" transform="translate(159,128)"/>
<path d="M0 0 C15.52923312 12.06309004 27.26018141 28.49119889 30.25 48.25 C31.94929997 69.56325385 27.25180473 89.64320834 13.25 106.25 C3.05807559 117.98032809 -8.92567646 124.84902895 -23.75 129.25 C-24.9565625 129.61931641 -24.9565625 129.61931641 -26.1875 129.99609375 C-45.23007269 134.78979694 -64.18403543 130.00286403 -80.75 120.25 C-84.30118516 117.79564904 -87.54651399 115.13985801 -90.75 112.25 C-91.44609375 111.64671875 -92.1421875 111.0434375 -92.859375 110.421875 C-105.12120671 99.11057288 -113.32130914 81.06374244 -114.0859375 64.3671875 C-114.43321432 44.34468613 -109.39067204 26.49545698 -95.75 11.25 C-95.09515625 10.50234375 -94.4403125 9.7546875 -93.765625 8.984375 C-69.50199598 -17.05032183 -28.93167117 -20.14230271 0 0 Z " fill="#010102" transform="translate(297.75,172.75)"/>
<path d="M0 0 C14.84695468 7.9124489 26.34781946 19.98548846 32 36 C32.29648437 36.73347656 32.59296875 37.46695313 32.8984375 38.22265625 C39.51435057 57.37238628 34.41969267 80.45127911 26.296875 98.3515625 C25.86890625 99.22554688 25.4409375 100.09953125 25 101 C24.57203125 101.89460938 24.1440625 102.78921875 23.703125 103.7109375 C11.8946564 126.86349671 -8.80311672 144.60401276 -33.4296875 152.80957031 C-50.76273786 158.13387876 -50.76273786 158.13387876 -59.61645508 158.11352539 C-60.71721878 158.11344986 -61.81798248 158.11337433 -62.95210266 158.11329651 C-64.71797981 158.10555458 -64.71797981 158.10555458 -66.51953125 158.09765625 C-67.73323898 158.0962413 -68.94694672 158.09482635 -70.19743347 158.09336853 C-74.06914752 158.08777665 -77.94080347 158.07522558 -81.8125 158.0625 C-84.43945229 158.05748395 -87.06640549 158.05292123 -89.69335938 158.04882812 C-96.12892859 158.03780987 -102.56445445 158.02055075 -109 158 C-109 150.74 -109 143.48 -109 136 C-106.5146875 135.75765625 -104.029375 135.5153125 -101.46875 135.265625 C-99.00246858 135.01681804 -96.53663261 134.7639618 -94.07080078 134.51074219 C-92.38600143 134.33986225 -90.7007838 134.17304658 -89.01513672 134.01074219 C-61.40160151 131.34324505 -35.53737469 123.64449784 -16.96875 101.61328125 C-4.21880742 84.68925033 0.52608975 66.7895265 3 46 C-2.28 46 -7.56 46 -13 46 C-12.9175 47.340625 -12.835 48.68125 -12.75 50.0625 C-12.82080776 66.7967338 -21.01802602 82.81242009 -32 95 C-32.55300781 95.63421875 -33.10601562 96.2684375 -33.67578125 96.921875 C-43.41564732 107.42884269 -58.73861612 115.47668459 -73 117 C-74.32 117 -75.64 117 -77 117 C-78.41896198 85.48594585 -70.16354031 56.57106117 -50 32 C-49.30261719 31.14921875 -48.60523438 30.2984375 -47.88671875 29.421875 C-38.4029622 18.39505751 -15.63038412 -4.61224449 0 0 Z " fill="#4EBFE7" transform="translate(453,330)"/>
<path d="M0 0 C0.65814697 0.37833984 1.31629395 0.75667969 1.99438477 1.14648438 C2.68927002 1.54287109 3.38415527 1.93925781 4.10009766 2.34765625 C32.14212415 18.79234959 51.21231757 45.34241056 59.68188477 76.55664062 C62.83652472 89.12304656 62.94668172 101.37580238 62.49438477 114.27148438 C42.73440714 112.80704689 27.55316585 103.36168683 14.30688477 88.95898438 C3.6791951 75.83949177 -1.75997984 60.05954814 -1.50561523 43.27148438 C-6.78561523 43.27148438 -12.06561523 43.27148438 -17.50561523 43.27148438 C-16.29362202 53.45647995 -14.84307156 63.33331202 -11.56811523 73.08398438 C-11.32754395 73.80505371 -11.08697266 74.52612305 -10.83911133 75.26904297 C-9.59288969 78.79931513 -8.19355313 81.86645713 -6.18920898 85.03320312 C-4.50561523 88.27148438 -4.50561523 88.27148438 -5.00561523 90.46289062 C-11.60338139 98.41800971 -20.16446229 104.87004187 -30.63061523 106.08398438 C-31.90936523 106.14585937 -33.18811523 106.20773437 -34.50561523 106.27148438 C-46.71658655 88.67331983 -51.52002068 65.60512379 -49.19702148 44.46289062 C-46.10009456 27.33387003 -37.17853566 12.36777155 -22.88061523 2.39648438 C-14.26618076 -3.47606359 -9.57091269 -5.25049686 0 0 Z " fill="#B2DB7E" transform="translate(73.505615234375,332.728515625)"/>
<path d="M0 0 C0.84434097 -0.00004028 1.68868195 -0.00008057 2.55860901 -0.00012207 C4.33968571 0.0052258 6.12076239 0.02277736 7.90161133 0.05175781 C10.61678818 0.09356342 13.32947777 0.09282762 16.04492188 0.0859375 C17.77996503 0.09643294 19.51499547 0.10937296 21.25 0.125 C22.05642441 0.12520142 22.86284882 0.12540283 23.69371033 0.12561035 C29.25194102 0.24133892 33.61628729 1.18989786 37.8359375 5.12890625 C42.21529794 10.85576221 42.21529794 10.85576221 42.12109375 13.765625 C42.05905848 16.6901449 42.20376312 18.82749415 43.19140625 21.59375 C45.83707301 23.54204167 48.5361243 24.7962293 51.51171875 26.1796875 C55.68328207 28.38100808 56.6142132 30.16258857 58.19140625 34.59375 C58.94971135 39.25773407 58.92842185 42.32372283 56.51733398 46.47851562 C54.08837644 49.73174311 51.71441793 51.38776234 48.4453125 53.74609375 C45.24341458 56.55857122 43.45773081 59.10840129 42.69696045 63.35137939 C42.08403446 72.85405456 42.76265616 82.45531205 43.37231445 91.94506836 C44.5850667 112.69945469 44.5850667 112.69945469 40.44512939 117.70526123 C36.1212485 121.11999675 31.3761462 123.10704872 26.18606567 124.85079956 C23.84054316 125.72443591 22.110996 127.00542625 20.19140625 128.59375 C19.53140625 128.59375 18.87140625 128.59375 18.19140625 128.59375 C18.19140625 120.67375 18.19140625 112.75375 18.19140625 104.59375 C20.83140625 104.59375 23.47140625 104.59375 26.19140625 104.59375 C26.19140625 99.31375 26.19140625 94.03375 26.19140625 88.59375 C24.28875 88.62855469 22.38609375 88.66335938 20.42578125 88.69921875 C17.9309984 88.7273554 15.43620602 88.75465569 12.94140625 88.78125 C11.68714844 88.80638672 10.43289063 88.83152344 9.140625 88.85742188 C7.93535156 88.86708984 6.73007812 88.87675781 5.48828125 88.88671875 C4.37807617 88.9024292 3.26787109 88.91813965 2.12402344 88.93432617 C-1.15860291 88.55310208 -2.49057373 87.91210911 -4.80859375 85.59375 C-5.84807125 82.4753175 -5.92354213 80.31899414 -5.90625 77.05078125 C-5.90302734 75.97763672 -5.89980469 74.90449219 -5.89648438 73.79882812 C-5.88810547 72.67927734 -5.87972656 71.55972656 -5.87109375 70.40625 C-5.86658203 69.27509766 -5.86207031 68.14394531 -5.85742188 66.97851562 C-5.84562873 64.18354073 -5.82917025 61.3886718 -5.80859375 58.59375 C-6.37779541 58.47765381 -6.94699707 58.36155762 -7.53344727 58.24194336 C-12.42789288 57.20549054 -17.06006734 55.94485223 -21.74609375 54.15625 C-23.39931641 53.53943359 -23.39931641 53.53943359 -25.0859375 52.91015625 C-27.80859375 51.59375 -27.80859375 51.59375 -29.80859375 48.59375 C-30.2265625 46.19921875 -30.2265625 46.19921875 -29.80859375 43.59375 C-27.796875 41.26953125 -27.796875 41.26953125 -25.12109375 38.90625 C-17.1413873 31.18650566 -14.56439711 25.24236898 -14.30859375 14.28125 C-14.32140381 13.50394531 -14.33421387 12.72664062 -14.34741211 11.92578125 C-14.34491455 11.18070313 -14.34241699 10.435625 -14.33984375 9.66796875 C-14.35595703 9.00369873 -14.37207031 8.33942871 -14.38867188 7.6550293 C-12.3056074 0.25296137 -6.48664472 -0.13154856 0 0 Z " fill="#EECFB3" transform="translate(397.80859375,199.40625)"/>
<path d="M0 0 C0.85095749 -0.00570007 1.70191498 -0.01140015 2.57865906 -0.01727295 C4.38177241 -0.02672798 6.18490308 -0.03325892 7.98803711 -0.03710938 C10.74038073 -0.04679987 13.49197283 -0.07781175 16.24414062 -0.109375 C17.99608932 -0.11590663 19.74804335 -0.12115647 21.5 -0.125 C22.73149529 -0.1435202 22.73149529 -0.1435202 23.98786926 -0.16241455 C28.63009359 -0.14441429 31.6796597 0.18380238 35.44921875 3.203125 C36.78387362 5.87243474 36.57664628 8.3370771 36.63647461 11.27148438 C36.8901247 21.10165918 37.77190256 28.55402791 45.0390625 35.77734375 C46.82995076 37.45771436 48.66012907 39.09765578 50.53515625 40.68359375 C52.44921875 43.203125 52.44921875 43.203125 52.4765625 46.8671875 C51.44921875 50.203125 51.44921875 50.203125 49.8046875 51.62109375 C49.08925781 51.87503906 48.37382812 52.12898438 47.63671875 52.390625 C46.83492188 52.68839844 46.033125 52.98617187 45.20703125 53.29296875 C44.29695313 53.59332031 43.386875 53.89367187 42.44921875 54.203125 C41.39476562 54.57566406 40.3403125 54.94820312 39.25390625 55.33203125 C30.95074314 58.203125 30.95074314 58.203125 28.44921875 58.203125 C28.4649292 58.90397217 28.48063965 59.60481934 28.49682617 60.3269043 C28.55934287 63.51472851 28.59826256 66.70242351 28.63671875 69.890625 C28.66185547 70.99341797 28.68699219 72.09621094 28.71289062 73.23242188 C28.72255859 74.29912109 28.73222656 75.36582031 28.7421875 76.46484375 C28.75789795 77.44412842 28.7736084 78.42341309 28.78979492 79.43237305 C28.38529883 82.72314445 27.44290264 84.57083241 25.44921875 87.203125 C22.21170197 88.28229726 19.87170104 88.31738101 16.46875 88.30078125 C15.30537109 88.29755859 14.14199219 88.29433594 12.94335938 88.29101562 C11.72841797 88.28263672 10.51347656 88.27425781 9.26171875 88.265625 C8.03517578 88.26111328 6.80863281 88.25660156 5.54492188 88.25195312 C2.5130001 88.24015576 -0.51889665 88.22222014 -3.55078125 88.203125 C-3.55078125 93.483125 -3.55078125 98.763125 -3.55078125 104.203125 C-0.91078125 104.203125 1.72921875 104.203125 4.44921875 104.203125 C4.44921875 112.123125 4.44921875 120.043125 4.44921875 128.203125 C0.1162322 126.03663172 -4.05373399 123.64039218 -8.2421875 121.21289062 C-8.83644531 120.87064453 -9.43070313 120.52839844 -10.04296875 120.17578125 C-10.5726123 119.86906494 -11.10225586 119.56234863 -11.64794922 119.24633789 C-14.24488594 117.82258749 -16.8969304 116.51700252 -19.55078125 115.203125 C-19.53444138 114.54294876 -19.5181015 113.88277252 -19.50126648 113.20259094 C-19.34283426 106.27409215 -19.27747475 99.3489643 -19.26391602 92.41870117 C-19.24697733 89.83966487 -19.20702916 87.26066563 -19.14282227 84.68237305 C-18.11435264 68.07545193 -18.11435264 68.07545193 -25.195755 53.86552429 C-26.92507882 52.3200326 -28.69157197 50.91525259 -30.55786133 49.53979492 C-33.65524316 47.12156819 -34.60429519 45.94131247 -35.55078125 42.203125 C-36.04275929 37.11935187 -35.93999848 33.34186284 -33.16796875 28.83984375 C-31.00404353 26.64978417 -28.64837187 25.68189429 -25.86328125 24.390625 C-22.91539028 23.04241584 -22.91539028 23.04241584 -20.55078125 21.203125 C-19.661837 18.54064981 -19.61181818 16.39800581 -19.6328125 13.6015625 C-19.50676745 9.91624542 -17.89922656 7.94297786 -15.55078125 5.203125 C-10.23989022 0.5244829 -6.93206761 0.03562027 0 0 Z " fill="#EFCFB3" transform="translate(91.55078125,199.796875)"/>
<path d="M0 0 C21.12 0 42.24 0 64 0 C69.9370507 11.28039633 75.84889564 22.54357457 81.5390625 33.9453125 C82.19726185 35.26103403 82.85557968 36.57669629 83.51400757 37.89230347 C84.86788981 40.59861987 86.22037553 43.30562778 87.57177734 46.01318359 C89.30624935 49.48792991 91.04442296 52.96081032 92.78357887 56.43321419 C94.13181663 59.12609421 95.47816595 61.8199148 96.82392502 64.51403427 C97.46527771 65.79740635 98.10722395 67.08048199 98.74977493 68.36325455 C99.63670681 70.13459733 100.52082312 71.90734908 101.40478516 73.68017578 C101.90756989 74.68654083 102.41035461 75.69290588 102.92837524 76.72976685 C104 79 104 79 104 80 C78.59 80 53.18 80 27 80 C24.66009163 74.15022908 22.41387534 68.49160243 20.43457031 62.54663086 C20.20965408 61.87378052 19.98473785 61.20093018 19.75300598 60.50769043 C19.02512783 58.32770153 18.30151686 56.14632501 17.578125 53.96484375 C17.06839575 52.43446159 16.55844315 50.9041538 16.04827881 49.37391663 C14.98751755 46.19007931 13.92875654 43.00558667 12.87158203 39.82055664 C11.51392996 35.73047726 10.15225066 31.64175262 8.78923416 27.55345821 C7.7397476 24.4047275 6.69182094 21.25547954 5.64443207 18.10605049 C5.14240327 16.59677696 4.64000835 15.08762517 4.13724518 13.57859612 C3.43926596 11.48250299 2.74326105 9.3857652 2.04785156 7.28881836 C1.65132385 6.09542343 1.25479614 4.9020285 0.84625244 3.67247009 C0 1 0 1 0 0 Z " fill="#FEE9A6" transform="translate(331,24)"/>
<path d="M0 0 C1.70209877 0.00333092 1.70209877 0.00333092 3.43858337 0.00672913 C4.71983597 0.00680466 6.00108856 0.00688019 7.32116699 0.00695801 C8.73001646 0.01206542 10.13886554 0.01728143 11.54771423 0.02259827 C12.98118033 0.02446249 14.41464706 0.02588637 15.84811401 0.02688599 C19.62765755 0.03071079 23.40716288 0.04054075 27.18669128 0.05158997 C31.04075097 0.06180489 34.8948168 0.06638378 38.74888611 0.07142639 C46.31596085 0.08216306 53.88300407 0.09923903 61.45005798 0.12025452 C55.27374155 19.28609156 49.04991888 38.43571631 42.70085144 57.54512024 C42.07462442 59.43064486 41.44942307 61.31651042 40.82524109 63.20271301 C39.94934369 65.84813427 39.06946567 68.49219606 38.18833923 71.13587952 C37.92532516 71.93206696 37.6623111 72.72825439 37.3913269 73.54856873 C35.56465399 79.00565851 35.56465399 79.00565851 34.45005798 80.12025452 C32.04657513 80.21522159 29.67194817 80.24584313 27.26817322 80.23377991 C26.14141678 80.23399895 26.14141678 80.23399895 24.99189758 80.23422241 C22.49745339 80.23352315 20.00308295 80.22573016 17.50865173 80.21791077 C15.78372234 80.21604663 14.05879242 80.21462271 12.3338623 80.21362305 C7.78493295 80.20979749 3.23603532 80.19996689 -1.31288147 80.18891907 C-5.95114208 80.17870575 -10.58940779 80.1741256 -15.22767639 80.16908264 C-24.33511224 80.15834465 -33.44252449 80.14126779 -42.54994202 80.12025452 C-35.3288837 64.65175983 -27.75264439 49.36942486 -20.10853577 34.10707092 C-18.36966195 30.63512091 -16.6344968 27.16133169 -14.9003067 23.68704033 C-13.5549376 20.99270468 -12.20768103 18.29931642 -10.85983276 15.60622025 C-10.21811214 14.32344538 -9.57698412 13.04037389 -8.9364624 11.75699997 C-8.05108835 9.98372814 -7.16289444 8.21186507 -6.27455139 6.44007874 C-5.77097107 5.43371368 -5.26739075 4.42734863 -4.74855042 3.39048767 C-3.03402807 0.14308387 -3.03402807 0.14308387 0 0 Z " fill="#FE816D" transform="translate(119.54994201660156,23.879745483398438)"/>
<path d="M0 0 C16.83 0 33.66 0 51 0 C57.48871404 19.38592451 57.48871404 19.38592451 60.2421875 27.62890625 C62.12359592 33.26115977 64.005667 38.89318593 65.89160156 44.52392578 C67.41143886 49.0617625 68.92837252 53.60056016 70.44326782 58.14004898 C71.02275526 59.87480594 71.60330153 61.60920956 72.18490601 63.3432579 C72.99714105 65.76551918 73.80565732 68.18899107 74.61328125 70.61279297 C74.85640045 71.33496002 75.09951965 72.05712708 75.3500061 72.80117798 C77 77.77189568 77 77.77189568 77 80 C51.59 80 26.18 80 0 80 C0 53.6 0 27.2 0 0 Z " fill="#FD816D" transform="translate(264,24)"/>
<path d="M0 0 C16.83 0 33.66 0 51 0 C51 26.4 51 52.8 51 80 C25.59 80 0.18 80 -26 80 C-24.27994402 73.69312807 -22.61110854 67.58347911 -20.5480957 61.41723633 C-20.3233255 60.74263367 -20.0985553 60.06803101 -19.86697388 59.37298584 C-19.13942371 57.1917044 -18.40766178 55.0118631 -17.67578125 52.83203125 C-17.16413925 51.30084402 -16.65276594 49.76956698 -16.14164734 48.23820496 C-14.80779312 44.24421067 -13.47033728 40.25143191 -12.13208008 36.25891113 C-10.52064405 31.44884418 -8.91376964 26.63725163 -7.3061142 21.8259201 C-4.87420037 14.54945052 -2.43656691 7.27492023 0 0 Z " fill="#FDE8A6" transform="translate(197,24)"/>
<path d="M0 0 C0.92599503 -0.01606293 1.85199005 -0.03212585 2.80604553 -0.04867554 C7.10294773 -0.09352995 11.39969421 -0.13431539 15.69677734 -0.15722656 C17.94362862 -0.17363281 20.19043116 -0.20071394 22.43701172 -0.23925781 C45.23070242 -0.62791145 65.24058277 2.64132226 82.36694336 18.94238281 C96.38946206 32.80064844 104.72334138 49.31520605 104.85717773 69.31787109 C104.61354376 85.61449002 100.00912938 101.48920416 89.54467773 114.19287109 C88.60108398 115.37816406 88.60108398 115.37816406 87.63842773 116.58740234 C83.21046415 121.88514449 78.48214911 125.68811368 72.54467773 129.19287109 C71.31448959 117.02767725 71.31448959 117.02767725 74.15014648 112.79833984 C75.5450133 111.51338749 76.97613179 110.26677359 78.43920898 109.06005859 C83.37488775 104.68296314 87.14159861 96.9409835 87.84545898 90.39599609 C87.88694728 79.94094495 85.93068677 71.90448146 78.54467773 64.19287109 C77.33772403 63.36773501 76.10829969 62.57436344 74.85717773 61.81787109 C71.67713368 59.75326733 70.96069293 58.09569243 70.04467773 54.44287109 C68.24680841 47.29394693 64.86126496 42.23516802 58.52514648 38.33349609 C52.90196902 35.47771068 47.98183567 33.07615315 41.61767578 33.05102539 C40.61621017 33.04399094 39.61474457 33.03695648 38.58293152 33.02970886 C37.50167496 33.02554459 36.4204184 33.02138031 35.30639648 33.01708984 C33.0192779 32.99389173 30.7321685 32.9697744 28.44506836 32.94482422 C24.83733989 32.90970713 21.22994893 32.8803628 17.62207031 32.86694336 C14.14142959 32.85146114 10.66177614 32.81124821 7.18139648 32.76708984 C5.56862068 32.76995247 5.56862068 32.76995247 3.92326355 32.77287292 C-2.18614676 32.67321154 -5.80806427 32.27688198 -10.45532227 28.19287109 C-14.75759816 23.42548429 -15.81814729 19.75539814 -15.73657227 13.47412109 C-15.14712838 8.69307623 -12.3071143 5.94325931 -8.83032227 2.88037109 C-5.59381972 0.58075087 -3.91316732 0.06176636 0 0 Z " fill="#646B76" transform="translate(383.455322265625,151.80712890625)"/>
<path d="M0 0 C0.9732724 -0.00570007 1.9465448 -0.01140015 2.9493103 -0.01727295 C4.99484181 -0.02666883 7.04038808 -0.03323523 9.0859375 -0.03710938 C12.208599 -0.04686769 15.33061605 -0.0779634 18.453125 -0.109375 C20.44791279 -0.11590131 22.44270524 -0.12115324 24.4375 -0.125 C25.36575592 -0.1373468 26.29401184 -0.1496936 27.25039673 -0.16241455 C33.17739146 -0.14207806 37.70527083 0.51404661 42.23046875 4.73828125 C46.41958302 10.21635375 47.20746152 13.38938019 46.5859375 20.203125 C44.76059159 25.47634653 41.97874547 28.00003586 37.5859375 31.203125 C34.65708651 32.17940866 32.75726185 32.33280052 29.70654297 32.3449707 C28.21886917 32.35552238 28.21886917 32.35552238 26.70114136 32.36628723 C25.09337326 32.37253365 25.09337326 32.37253365 23.453125 32.37890625 C21.17967834 32.40211398 18.90624082 32.42623169 16.6328125 32.45117188 C13.05169645 32.48620879 9.47091461 32.51558749 5.88964844 32.52905273 C2.43122833 32.54459888 -1.02621528 32.58486234 -4.484375 32.62890625 C-5.54407501 32.62699783 -6.60377502 32.62508942 -7.69558716 32.62312317 C-17.80521073 32.78807607 -26.03960839 36.21510517 -33.4140625 43.203125 C-36.50917657 46.98953358 -38.40703023 50.50301366 -39.2265625 55.328125 C-40.13935473 59.80515356 -42.65521367 61.13381133 -46.3125 63.57421875 C-51.36472192 67.49016027 -55.19128165 73.96694268 -56.4140625 80.203125 C-57.18850659 88.40739203 -56.63992519 95.98351861 -52.4140625 103.203125 C-50.52755857 105.19277591 -48.63195378 107.1123473 -46.6640625 109.015625 C-43.41815896 112.16221748 -41.54710862 114.48264029 -40.69921875 119.07421875 C-40.72348749 122.51691262 -40.91549302 125.79875156 -41.4140625 129.203125 C-57.64724042 119.21347705 -67.90147208 103.50210365 -72.71875 85.1640625 C-76.41296655 66.74966848 -72.57507458 47.721196 -62.61181641 31.95068359 C-52.08006305 16.58454202 -36.50052949 5.6300221 -18.4140625 1.203125 C-12.25024644 0.26833225 -6.22887797 0.02864289 0 0 Z " fill="#B07745" transform="translate(97.4140625,151.796875)"/>
<path d="M0 0 C0.66569504 -0.00554901 1.33139008 -0.01109802 2.01725769 -0.01681519 C4.20691044 -0.02857861 6.39447797 -0.00437471 8.58398438 0.02148438 C10.11185614 0.02319649 11.63973084 0.02312877 13.16760254 0.0213623 C16.36543997 0.02301365 19.56257476 0.04167599 22.76025391 0.07324219 C26.85265379 0.1129199 30.94413402 0.11728643 35.03668976 0.10977936 C38.19037249 0.1067051 41.3438497 0.11884625 44.4974823 0.13591003 C46.00610565 0.14292529 47.5147523 0.14606636 49.02339172 0.1452179 C51.13450962 0.14702221 53.24453978 0.16845545 55.35546875 0.1953125 C57.15485901 0.20794128 57.15485901 0.20794128 58.99060059 0.2208252 C62.47938538 0.65256382 64.38053785 1.52169287 67.17773438 3.61523438 C69.46606551 8.19189665 68.5728969 14.82912211 68.63769531 19.90795898 C68.6642435 21.49583191 68.70510544 23.08353433 68.76074219 24.6706543 C69.21904012 37.90745807 69.21904012 37.90745807 66.72021484 42.00561523 C64.88867188 43.74804688 64.88867188 43.74804688 62.96386719 45.21459961 C59.98579348 47.54992067 58.91144713 50.40368 57.30273438 53.80273438 C57.00882812 54.40537109 56.71492188 55.00800781 56.41210938 55.62890625 C54.97244633 58.63700954 53.99145722 61.36034301 53.17773438 64.61523438 C36.67773438 64.61523438 20.17773438 64.61523438 3.17773438 64.61523438 C1.19773438 59.17023438 1.19773438 59.17023438 -0.82226562 53.61523438 C-4.47366029 47.48532405 -4.47366029 47.48532405 -9.38452148 42.47021484 C-12.40347871 38.93454276 -12.55043527 36.31305852 -12.48632812 31.86523438 C-12.49111176 31.12950195 -12.49589539 30.39376953 -12.50082397 29.63574219 C-12.50421443 28.08591565 -12.49507154 26.53601676 -12.47412109 24.98632812 C-12.44733565 22.62141651 -12.4738898 20.26124936 -12.50585938 17.89648438 C-12.50255512 16.38605729 -12.49614853 14.87563315 -12.48632812 13.36523438 C-12.49644928 12.66301758 -12.50657043 11.96080078 -12.51699829 11.23730469 C-12.43073143 7.60185938 -11.97435844 5.80855755 -9.70822144 2.92810059 C-6.17464506 0.09621751 -4.48166807 -0.00767538 0 0 Z " fill="#FEE9A6" transform="translate(227.822265625,423.384765625)"/>
<path d="M0 0 C3.68848723 1.57341064 6.22313354 3.89080724 9.1875 6.5625 C13.94481218 10.66076137 18.90182386 13.91700033 24.4375 16.875 C25.41916138 17.40975952 25.41916138 17.40975952 26.4206543 17.95532227 C36.99442206 23.40187068 48.08627246 25.60639766 59.8274231 26.7819519 C62.06545207 27.00656902 64.3010575 27.24869063 66.53686523 27.49438477 C73.89210072 28.29501636 81.25272348 29.03037242 88.61880493 29.72372437 C91.96062287 30.04079075 95.30099586 30.37184051 98.64135742 30.70385742 C101.00651382 30.93209728 103.37292007 31.13736861 105.74023438 31.34179688 C115.63495294 32.27192181 124.33096443 33.87884926 131.4375 41.375 C134.06967008 44.565033 135.40331996 48.21216931 137 52 C124.03849944 52.04647248 111.07701892 52.08194476 98.11545181 52.10362434 C92.09598077 52.11403282 86.076567 52.12813815 80.05712891 52.15087891 C74.24105013 52.17271228 68.42502623 52.18459068 62.60890961 52.18975449 C60.39711392 52.19343147 58.18532102 52.20061138 55.97354889 52.21146011 C29.0342563 52.33826477 3.79703201 47.39888654 -17 29 C-18.34771484 27.84757812 -18.34771484 27.84757812 -19.72265625 26.671875 C-26.8468275 20.45951751 -26.8468275 20.45951751 -28 17 C-27.12859375 16.67128906 -26.2571875 16.34257812 -25.359375 16.00390625 C-15.69805833 12.14565317 -7.43725327 7.43725327 0 0 Z " fill="#EDCEB2" transform="translate(78,436)"/>
<path d="M0 0 C21.78 0 43.56 0 66 0 C61.93709736 8.12580527 52.86178482 12.16154597 44.5625 15.1171875 C32.99798477 17.98295553 21.86768535 16.49406127 11.50390625 10.57421875 C7.16669953 7.81806276 3.40790898 4.84763917 0 1 C0 0.67 0 0.34 0 0 Z " fill="#F8D36E" transform="translate(367,120)"/>
<path d="M0 0 C21.78 0 43.56 0 66 0 C61.93709736 8.12580527 52.86178482 12.16154597 44.5625 15.1171875 C32.99798477 17.98295553 21.86768535 16.49406127 11.50390625 10.57421875 C7.16669953 7.81806276 3.40790898 4.84763917 0 1 C0 0.67 0 0.34 0 0 Z " fill="#F86C4F" transform="translate(271,120)"/>
<path d="M0 0 C21.78 0 43.56 0 66 0 C61.93709736 8.12580527 52.86178482 12.16154597 44.5625 15.1171875 C32.99798477 17.98295553 21.86768535 16.49406127 11.50390625 10.57421875 C7.16669953 7.81806276 3.40790898 4.84763917 0 1 C0 0.67 0 0.34 0 0 Z " fill="#F8D36E" transform="translate(175,120)"/>
<path d="M0 0 C21.78 0 43.56 0 66 0 C61.93709736 8.12580527 52.86178482 12.16154597 44.5625 15.1171875 C32.99798477 17.98295553 21.86768535 16.49406127 11.50390625 10.57421875 C7.16669953 7.81806276 3.40790898 4.84763917 0 1 C0 0.67 0 0.34 0 0 Z " fill="#F86C4F" transform="translate(79,120)"/>
<path d="M0 0 C0.80232056 -0.00004028 1.60464111 -0.00008057 2.43127441 -0.00012207 C4.12239443 0.00522359 5.8135146 0.02276578 7.50439453 0.05175781 C10.08573724 0.09362006 12.66446867 0.09282315 15.24609375 0.0859375 C16.89324721 0.09643096 18.54038728 0.10936992 20.1875 0.125 C21.3392572 0.12530212 21.3392572 0.12530212 22.51428223 0.12561035 C27.02599744 0.22473308 30.01087988 0.78722566 33.59375 3.59375 C34.59375 5.59375 34.59375 5.59375 34.59375 16.59375 C18.75375 16.59375 2.91375 16.59375 -13.40625 16.59375 C-13.40625 5.59375 -13.40625 5.59375 -11.43164062 2.44335938 C-7.57727583 0.08694656 -4.38769221 -0.0936882 0 0 Z " fill="#FAD56F" transform="translate(245.40625,391.40625)"/>
<path d="M0 0 C0 6.6 0 13.2 0 20 C-10.23 20 -20.46 20 -31 20 C-27.06089852 10.80876321 -23.65984411 6.12669797 -14.53125 1.93359375 C-9.68221337 0.14513734 -5.15821283 0 0 0 Z " fill="#ECCCB1" transform="translate(328,468)"/>
<path d="M0 0 C9.9 0 19.8 0 30 0 C30 8 30 8 28 16 C19.42 16 10.84 16 2 16 C0 8 0 8 0 0 Z " fill="#68D4F2" transform="translate(241,240)"/>
<path d="M0 0 C8.58 0 17.16 0 26 0 C28 8 28 8 28 16 C18.1 16 8.2 16 -2 16 C-2 8 -2 8 0 0 Z " fill="#68D4F2" transform="translate(243,208)"/>
<path d="M0 0 C7.92 0 15.84 0 24 0 C23 8 23 8 20 16 C13.07 16 6.14 16 -1 16 C-0.67 10.72 -0.34 5.44 0 0 Z " fill="#67D2F0" transform="translate(287,240)"/>
<path d="M0 0 C6.93 0 13.86 0 21 0 C25 10.375 25 10.375 25 16 C17.08 16 9.16 16 1 16 C0.67 10.72 0.34 5.44 0 0 Z " fill="#67D2F0" transform="translate(286,208)"/>
<path d="M0 0 C6.93 0 13.86 0 21 0 C20.67 5.28 20.34 10.56 20 16 C12.08 16 4.16 16 -4 16 C-3 7 -3 7 0 0 Z " fill="#67D2F0" transform="translate(205,208)"/>
<path d="M0 0 C7.59 0 15.18 0 23 0 C25 8 25 8 25 16 C18.07 16 11.14 16 4 16 C0 5.625 0 5.625 0 0 Z " fill="#67D3F1" transform="translate(201,240)"/>
<path d="M0 0 C4.95 0 9.9 0 15 0 C8.88838181 6.11161819 2.47152907 10.77065024 -6 13 C-4.31057815 8.49487506 -2.17831861 4.2840266 0 0 Z " fill="#63CAE7" transform="translate(280,272)"/>
<path d="M0 0 C4.95 0 9.9 0 15 0 C21 10.75 21 10.75 21 13 C12.52847093 10.77065024 6.11161819 6.11161819 0 0 Z " fill="#63CAE7" transform="translate(217,272)"/>
<path d="M0 0 C8.47152907 2.22934976 14.88838181 6.88838181 21 13 C16.05 13 11.1 13 6 13 C0 2.25 0 2.25 0 0 Z " fill="#64CBE8" transform="translate(274,179)"/>
<path d="M0 0 C-1.68942185 4.50512494 -3.82168139 8.7159734 -6 13 C-10.95 13 -15.9 13 -21 13 C-17.36752463 9.36752463 -15.14967709 7.24084939 -10.9375 4.8125 C-10.10089844 4.32394531 -9.26429688 3.83539063 -8.40234375 3.33203125 C-2.39296188 0 -2.39296188 0 0 0 Z " fill="#64CCE9" transform="translate(238,179)"/>
<path d="M0 0 C3.96 0 7.92 0 12 0 C10.84414715 3.91211733 9.64465038 6.8745041 7 10 C2.57320993 8.52440331 2.08567304 6.09942632 0 2 C0 1.34 0 0.68 0 0 Z " fill="#64CDEA" transform="translate(250,272)"/>
<path d="M0 0 C4.42679007 1.47559669 4.91432696 3.90057368 7 8 C7 8.66 7 9.32 7 10 C3.04 10 -0.92 10 -5 10 C-3.84414715 6.08788267 -2.64465038 3.1254959 0 0 Z " fill="#64CDEA" transform="translate(255,182)"/>
</svg>
